<?xml version="1.0" encoding="iso-8859-1"?>
<!-- Uploaded to: SVG Repo, www.svgrepo.com, Generator: SVG Repo Mixer Tools -->
<svg fill="#000000" height="800px" width="800px" version="1.1" id="Layer_1" xmlns="http://www.w3.org/2000/svg" xmlns:xlink="http://www.w3.org/1999/xlink" 
	 viewBox="0 0 512 512" xml:space="preserve">
<g>
	<g>
		<path d="M501.338,207.27c-0.001-95.968-59.071-177.055-136.234-177.055c-27.78,0-54.139,10.564-76.444,30.23
			c17.545,32.98,28.028,73.212,28.028,116.609c0,54.279-16.57,109.44-51.156,151.306c18.285,25.404,43.027,45.069,72.969,52.645
			l-28.01,48.152c-6.508,11.186,1.594,25.227,14.51,25.227h23.316v40.829c0,9.271,7.516,16.786,16.786,16.786
			s16.786-7.516,16.786-16.786v-40.829h23.316c0.007,0,0.015,0,0.022,0c13.388,0,21.283-14.894,14.068-25.948l-27.591-47.432
			C455.274,364.922,501.338,292.233,501.338,207.27z"/>
	</g>
</g>
<g>
	<g>
		<path d="M283.114,177.055C283.114,80.383,223.577,0,146.882,0C62.66,0,5.692,93.742,11.004,190.03
			c4.389,79.562,49.216,145.558,109.275,160.76c-25.165,43.262-15.39,26.456-28.01,48.152c-6.508,11.186,1.594,25.227,14.51,25.227
			h23.316v71.044c0,9.271,7.516,16.786,16.786,16.786c9.271,0,16.786-7.516,16.786-16.786v-71.044h23.316c0.007,0,0.015,0,0.022,0
			c13.388,0,21.283-14.894,14.068-25.948c-7.891-13.566-24.227-41.65-27.591-47.432C244.26,332.878,283.114,252.183,283.114,177.055
			z M100.931,267.455c-7.373,5.621-17.907,4.2-23.526-3.173c-4.331-5.681-8.252-11.926-11.656-18.561
			c-4.23-8.25-0.972-18.367,7.276-22.597c8.251-4.23,18.367-0.972,22.597,7.276c2.499,4.873,5.353,9.424,8.482,13.529
			C109.724,251.302,108.303,261.835,100.931,267.455z M146.882,86.1c-16.016,0-31.401,8.808-43.32,24.801
			C90.54,128.372,83.37,151.865,83.37,177.055c0,9.271-7.516,16.786-16.786,16.786c-9.271,0-16.786-7.516-16.786-16.786
			c0-32.369,9.535-62.988,26.846-86.216c18.414-24.706,43.358-38.312,70.24-38.312c9.271,0,16.786,7.516,16.786,16.786
			C163.669,78.584,156.152,86.1,146.882,86.1z"/>
	</g>
</g>
</svg>