<?xml version="1.0" encoding="iso-8859-1"?>
<!-- Uploaded to: SVG Repo, www.svgrepo.com, Generator: SVG Repo Mixer Tools -->
<svg fill="#000000" version="1.1" id="Layer_1" xmlns="http://www.w3.org/2000/svg" xmlns:xlink="http://www.w3.org/1999/xlink" 
	 viewBox="0 0 512 512" xml:space="preserve">
<g>
	<g>
		<g>
			<path d="M433.721,142.931c-17.565,0-34.077,6.84-46.498,19.259l-6.953,6.954l-6.954-6.954c-3.9-3.899-8.175-7.198-12.705-9.91
				c21.281-38.494,14.915-86.783-16.893-118.592c-38.895-38.893-102.178-38.893-141.073,0l-14.269,14.27l-14.269-14.27
				c-38.896-38.894-102.18-38.892-141.074,0c-38.893,38.895-38.893,102.179,0,141.073l147.324,147.323v6.734h-8.325v15.608h32.257
				v-15.608h-8.324v-6.304l76.641-76.64c2.249,3.276,4.81,6.401,7.718,9.309l91.497,91.495v13.357h-8.325v15.608h32.258v-15.608
				h-8.325v-12.064l92.788-92.787c12.42-12.421,19.26-28.934,19.26-46.498c0-17.565-6.84-34.077-19.26-46.498
				C467.798,149.771,451.285,142.931,433.721,142.931z M265.098,231.308l-76.722,76.722L44.071,163.723
				c-32.808-32.807-32.808-86.19,0-118.998c32.809-32.808,86.192-32.808,118.999,0l25.306,25.305l25.307-25.305
				c32.808-32.808,86.19-32.808,118.998,0c27.152,27.151,32.342,68.536,13.621,101.183c-22.56-6.959-48.153-1.541-65.978,16.282
				C261.667,180.847,256.603,208.014,265.098,231.308z M469.18,244.146l-88.908,88.909l-88.909-88.908
				c-19.552-19.553-19.552-51.367-0.001-70.92c9.777-9.777,22.617-14.665,35.46-14.665c12.841,0,25.685,4.889,35.459,14.665
				l17.99,17.989l17.99-17.989c19.552-19.554,51.367-19.552,70.918,0h0.001c9.471,9.47,14.688,22.064,14.688,35.459
				C483.868,222.081,478.652,234.675,469.18,244.146z"/>
			<path d="M316.497,104.056h15.608c0-30.176-24.8-55.61-56.017-55.61v15.608C298.981,64.055,316.497,82.205,316.497,104.056z"/>
			<path d="M392.264,432.236h-19.989c-4.514,0-8.186-3.672-8.186-8.186c0-4.515,3.672-8.187,8.186-8.187
				c8.713,0,15.801-7.088,15.801-15.8v-15.991h-15.608v15.991c0,0.106-0.086,0.191-0.193,0.191
				c-13.12,0-23.795,10.675-23.795,23.796s10.674,23.795,23.795,23.795h19.989c6.719,0,12.185,5.466,12.185,12.185
				c0,6.719-5.466,12.185-12.185,12.185c-10.915,0-19.797,8.881-19.797,19.797V512h15.608v-19.989c0-2.31,1.879-4.188,4.188-4.188
				c15.325,0,27.793-12.468,27.793-27.793C420.058,444.704,407.589,432.236,392.264,432.236z"/>
			<path d="M201.951,448.227h-21.571c-8.923,0-16.183-7.26-16.183-16.183s7.26-16.183,16.183-16.183h15.991
				c13.12,0,23.796-10.675,23.796-23.796s-10.675-23.795-23.796-23.795c-0.106,0-0.191-0.086-0.191-0.193v-15.99h-15.608v15.99
				c0,8.713,7.088,15.801,15.8,15.801c4.515,0,8.187,3.672,8.187,8.186c0,4.515-3.672,8.187-8.187,8.187h-15.991
				c-17.53,0-31.791,14.261-31.791,31.791s14.261,31.791,31.791,31.791h21.571c10.255,0,18.598,8.344,18.598,18.599V512h15.608
				v-29.566C236.158,463.572,220.813,448.227,201.951,448.227z"/>
			<path d="M436.335,176.377v15.608c8.325,0,16.087,6.763,16.087,16.128h15.608C468.031,190.423,454.025,176.377,436.335,176.377z"
				/>
			<rect x="21.15" y="255.979" width="15.608" height="24.974"/>
			<rect x="107.52" y="464.091" width="15.608" height="23.933"/>
			<rect x="308.349" y="472.416" width="15.608" height="23.933"/>
			<rect x="235.51" y="327.778" width="15.608" height="24.974"/>
			<rect x="413.446" y="72.839" width="15.608" height="23.933"/>
			<rect x="100.236" y="319.453" width="15.608" height="17.69"/>
			<rect x="45.086" y="208.113" width="15.608" height="16.649"/>
			<rect x="261.524" y="295.52" width="15.608" height="16.649"/>
			<rect x="333.323" y="360.035" width="15.608" height="15.608"/>
			<rect x="460.271" y="352.751" width="15.608" height="14.568"/>
			<rect x="428.014" y="383.968" width="15.608" height="15.608"/>
			<rect x="35.721" y="423.509" width="15.608" height="16.649"/>
			<rect x="52.37" y="440.158" width="15.608" height="15.608"/>
			<rect x="371.823" y="8.325" width="15.608" height="15.608"/>
			<rect x="476.92" y="120.705" width="15.608" height="15.608"/>
			<path d="M58.945,335.765c-3.382-5.072-3.79-11.612-1.062-17.065l9.545-19.09l-13.96-6.981l-9.546,19.091
				c-5.225,10.452-4.444,22.984,2.037,32.706c3.383,5.073,3.79,11.612,1.062,17.065l-9.545,19.09l13.96,6.981l9.545-19.09
				C66.207,358.019,65.426,345.488,58.945,335.765z"/>
			<path d="M299.299,355.579l-13.96-6.981l-9.545,19.09c-5.226,10.451-4.445,22.983,2.035,32.704
				c3.383,5.075,3.79,11.615,1.062,17.067l-9.545,19.09l13.96,6.981l9.545-19.09c5.226-10.45,4.445-22.982-2.035-32.706
				c-3.383-5.074-3.79-11.613-1.062-17.065L299.299,355.579z"/>
			<path d="M483.199,403.552l-13.96-6.981l-9.545,19.09c-5.226,10.45-4.445,22.982,2.035,32.705
				c3.383,5.074,3.79,11.614,1.062,17.066l-9.545,19.09l13.96,6.981l9.545-19.09c5.226-10.45,4.445-22.983-2.036-32.706
				c-3.382-5.074-3.789-11.613-1.062-17.065L483.199,403.552z"/>
			<path d="M445.252,108.73l13.96,6.981l9.545-19.09c5.226-10.452,4.445-22.984-2.036-32.706c-3.382-5.074-3.79-11.613-1.062-17.066
				l9.545-19.09l-13.96-6.981l-9.545,19.091c-5.225,10.451-4.444,22.983,2.036,32.706c3.383,5.073,3.79,11.612,1.062,17.065
				L445.252,108.73z"/>
			<rect x="492.529" width="15.608" height="15.608"/>
		</g>
	</g>
</g>
</svg>