<?xml version="1.0" encoding="iso-8859-1"?>
<!-- Uploaded to: SVG Repo, www.svgrepo.com, Generator: SVG Repo Mixer Tools -->
<svg fill="#000000" height="800px" width="800px" version="1.1" id="Layer_1" xmlns="http://www.w3.org/2000/svg" xmlns:xlink="http://www.w3.org/1999/xlink" 
	 viewBox="0 0 511.999 511.999" xml:space="preserve">
<g>
	<g>
		<path d="M489.057,199.776l-36.289-34.433V67.905c0-5.58-4.522-10.102-10.102-10.102H339.427l-44.584-42.302
			c-21.78-20.668-55.904-20.668-77.686,0l-44.583,42.302H69.335c-5.58,0-10.102,4.522-10.102,10.102v97.438l-37.221,35.316
			c-4.048,3.84-4.177,10.196-0.374,14.282c1.744,1.875,165.618,122.932,165.618,122.932L51.4,466.775
			c-3.32,3.149-5.667,6.993-6.98,11.138c-3.378-5.02-5.353-11.061-5.353-17.553V272.485c0-5.58-4.522-10.102-10.102-10.102
			c-5.58,0-10.102,4.522-10.102,10.102v187.875c0,27.214,21.128,49.57,47.839,51.568c0.915,0.096,377.681,0.096,378.597,0
			c26.71-1.999,47.835-24.356,47.835-51.568V209.627C493.136,206.191,492.26,202.981,489.057,199.776z M231.063,30.157
			c13.984-13.269,35.891-13.266,49.873,0l29.137,27.646H201.924L231.063,30.157z M44.703,206.98l14.53-13.786v3.96
			c0,5.58,4.522,10.102,10.102,10.102c5.58,0,10.102-4.522,10.102-10.102V78.007h255.877c0.028,0,0.057,0.004,0.085,0.004
			c0.027,0,0.054-0.004,0.079-0.004h97.084v119.354c0,5.58,4.522,10.102,10.102,10.102c5.58,0,10.102-4.522,10.102-10.102v-4.167
			l14.652,13.903l-157.43,116.775l-15.146-14.371c-21.78-20.668-55.904-20.67-77.686,0l-15.023,14.253L44.703,206.98z
			 M448.152,488.072c-0.438,1.098-1.824,3.565-5.194,3.774c-0.516,0.026-373.401,0.026-373.914,0
			c-3.373-0.207-4.756-2.676-5.194-3.774c-0.458-1.148-1.231-4.089,1.456-6.64l143.656-136.306c0.676-0.494,1.298-1.08,1.852-1.756
			l20.249-19.213c6.992-6.634,15.965-9.951,24.937-9.951c8.972,0,17.945,3.318,24.937,9.951l165.758,157.275
			C449.383,483.982,448.609,486.924,448.152,488.072z M472.931,460.359c0,6.494-1.975,12.532-5.353,17.553
			c-1.313-4.143-3.66-7.987-6.98-11.137L324.867,337.989l148.064-109.827V460.359z"/>
	</g>
</g>
<g>
	<g>
		<path d="M178.823,111.648c-5.431,0-9.686,4.255-9.686,9.686v38.66h-41.102v-38.66c0-5.431-4.328-9.686-9.85-9.686
			c-5.432,0-9.687,4.255-9.687,9.686v96.695c0,5.431,4.255,9.686,9.687,9.686c5.524,0,9.85-4.255,9.85-9.686v-38.66h41.101v38.66
			c0,5.431,4.255,9.686,9.686,9.686c5.525,0,9.852-4.255,9.852-9.686v-96.695C188.674,115.903,184.347,111.648,178.823,111.648z"/>
	</g>
</g>
<g>
	<g>
		<path d="M283.534,161.966c3.886-5.427,5.935-11.81,5.935-18.506c0-17.54-14.271-31.811-31.811-31.811h-23.271
			c-5.343,0-9.689,4.345-9.689,9.686v96.695c-0.001,5.25,4.435,9.686,9.689,9.686c0.133,0,0.244-0.028,0.326-0.063
			c0.097,0.04,0.207,0.063,0.329,0.063h29.008c19.71,0,35.745-16.108,35.745-35.908
			C299.795,179.801,293.731,168.698,283.534,161.966z M244.236,131.187h13.422c6.882,0,12.272,5.39,12.272,12.272
			c0,6.949-5.505,12.602-12.272,12.602h-13.422V131.187z M264.05,208.176h-19.814v-32.577h19.801
			c9.095,0.16,16.219,7.279,16.219,16.208C280.256,200.827,273.132,208.017,264.05,208.176z"/>
	</g>
</g>
<g>
	<g>
		<path d="M351.076,111.648h-19.338c-5.431,0-9.686,4.255-9.686,9.686v96.695c0,5.342,4.344,9.687,9.686,9.687h19.338
			c31.909,0,57.87-26.108,57.87-58.198C408.946,137.609,382.986,111.648,351.076,111.648z M351.076,208.177h-9.488v0v-76.99h9.488
			c21.136,0,38.333,17.196,38.333,38.331C389.408,191.035,372.569,208.016,351.076,208.177z"/>
	</g>
</g>
</svg>