<?xml version="1.0" encoding="iso-8859-1"?>
<!-- Uploaded to: SVG Repo, www.svgrepo.com, Generator: SVG Repo Mixer Tools -->
<svg fill="#000000" height="800px" width="800px" version="1.1" id="Layer_1" xmlns="http://www.w3.org/2000/svg" xmlns:xlink="http://www.w3.org/1999/xlink" 
	 viewBox="0 0 512 512" xml:space="preserve">
<g>
	<g>
		<path d="M131.63,304.706c-9.045-3.416-17.533-8.537-24.86-15.208c-7.755-7.059-13.931-15.435-18.245-24.563
			c-11.66,11.146-18.936,26.841-18.936,44.246c0,33.81,27.408,61.217,61.217,61.217c14.379,0,27.59-4.971,38.038-13.27
			C152.527,343.046,139.641,325.091,131.63,304.706z"/>
	</g>
</g>
<g>
	<g>
		<path d="M423.475,264.935c-4.314,9.128-10.492,17.504-18.246,24.563c-7.326,6.669-15.814,11.79-24.859,15.206
			c-8.012,20.387-20.896,38.341-37.215,52.424c10.447,8.3,23.659,13.27,38.038,13.27c33.81,0,61.217-27.408,61.217-61.217
			C442.411,291.777,435.137,276.082,423.475,264.935z"/>
	</g>
</g>
<g>
	<g>
		<path d="M358.274,422.569c-23.462,32.335-61.332,52.204-102.274,52.204s-78.812-19.868-102.274-52.204
			c-30.236,21.823-53.23,53.063-64.682,89.431h333.913C411.504,475.632,388.51,444.391,358.274,422.569z"/>
	</g>
</g>
<g>
	<g>
		<path d="M256,389.565c-26.159,0-50.973,5.75-73.26,16.043c17.369,22.229,44.267,35.773,73.26,35.773
			c28.993,0,55.891-13.544,73.261-35.773C306.973,395.314,282.159,389.565,256,389.565z"/>
	</g>
</g>
<g>
	<g>
		<path d="M389.52,213.555c-8.467-9.301-21.94-11.845-34.771-7.844c-2.249-13.243-7.097-25.6-14.002-36.53H171.254
			c-6.905,10.931-11.753,23.288-14.002,36.531c-12.832-4.001-26.306-1.457-34.771,7.844c-12.396,13.617-9.366,36.562,6.767,51.25
			c8.25,7.51,18.882,11.27,28.621,11.417c9.354,45.63,49.734,79.951,98.131,79.951s88.777-34.321,98.131-79.952
			c9.739-0.147,20.371-3.907,28.621-11.417C398.886,250.119,401.917,227.173,389.52,213.555z"/>
	</g>
</g>
<g>
	<g>
		<polygon points="256,0 221.496,69.009 290.504,69.009 		"/>
	</g>
</g>
<g>
	<g>
		<polygon points="307.2,102.4 204.8,102.4 188.104,135.791 323.896,135.791 		"/>
	</g>
</g>
</svg>