<?xml version="1.0" encoding="iso-8859-1"?>
<!-- Uploaded to: SVG Repo, www.svgrepo.com, Generator: SVG Repo Mixer Tools -->
<svg fill="#000000" height="800px" width="800px" version="1.1" id="Layer_1" xmlns="http://www.w3.org/2000/svg" xmlns:xlink="http://www.w3.org/1999/xlink" 
	 viewBox="0 0 511.996 511.996" xml:space="preserve">
<g>
	<g>
		<path d="M507.014,285.664c-4.911-4.929-9.875-11.384-15.622-18.858c-7.598-9.882-16.213-21.082-27.424-32.259
			c-3.066-3.055-8.028-3.048-11.083,0.018c-3.056,3.066-3.048,8.028,0.018,11.084c10.481,10.449,18.761,21.215,26.065,30.713
			c5.823,7.573,11.325,14.727,16.955,20.377c0.331,0.33,0.46,0.731,0.383,1.191c-0.05,0.303-0.209,0.709-0.675,0.977
			c-0.041,0.02-0.08,0.039-0.121,0.058c-4.163,2.054-7.349,5.774-8.738,10.206c-1.391,4.431-0.901,9.305,1.344,13.369
			c0.01,0.02,0.032,0.06,0.054,0.097c0.27,0.51,0.164,0.962,0.026,1.255c-0.198,0.422-0.529,0.679-0.991,0.767
			c-7.793,1.488-16.351,4.298-25.41,7.271c-27.995,9.191-62.566,20.522-110.695,8.384c1.437-17.053,2.273-42.391-2.057-65.409
			l78.305,24.155c0.769,0.237,1.547,0.35,2.313,0.35c3.347,0,6.447-2.162,7.486-5.53c1.276-4.136-1.043-8.523-5.179-9.799
			l-73.273-22.603c17.31-18.689,30.891-41.003,37.565-52.881c11.619,4.592,22.441,10.235,32.227,16.852
			c1.346,0.91,2.872,1.346,4.382,1.346c2.514,0,4.985-1.208,6.499-3.449c2.424-3.586,1.483-8.457-2.102-10.883
			c-11.704-7.913-24.716-14.543-38.711-19.775c-0.771-1.864-1.909-3.545-3.328-4.956c29.839-46.546,29.738-87.528,29.644-117.834
			c-0.028-9.418-0.053-17.55,0.816-24.419c0.688-5.411-1.274-10.868-5.249-14.596c-3.98-3.732-9.559-5.341-14.919-4.309
			c-0.047,0.008-0.101,0.021-0.158,0.033c-0.45,0.06-0.789-0.099-1-0.249c-0.213-0.153-0.48-0.427-0.563-0.883
			c-0.003-0.021-0.006-0.041-0.009-0.062c-0.779-5.439-4.154-10.197-9.026-12.73c-4.867-2.53-10.696-2.558-15.59-0.074
			c-6.211,3.152-13.891,5.884-22.783,9.046c-28.298,10.062-66.681,23.722-100.322,66.857c-0.739-0.112-1.485-0.188-2.239-0.188
			c-0.818,0-1.627,0.087-2.427,0.218c-11.411-13.925-23.893-25.465-38.02-35.146c-3.571-2.447-8.448-1.535-10.895,2.034
			c-2.446,3.57-1.535,8.448,2.034,10.895c12.606,8.638,23.803,18.926,34.081,31.324c-9.919,10.974-26.385,30.707-38.077,52.461
			L152.327,85.81c-2.594-3.462-7.508-4.167-10.971-1.57c-3.463,2.597-4.166,7.509-1.569,10.971l49.503,66.044
			c-23.822,3.523-47.915,12.628-62.966,19.131C99.038,139.372,98.031,103.18,97.229,73.867c-0.261-9.563-0.509-18.595-1.744-26.477
			c-0.073-0.465,0.06-0.868,0.394-1.197c0.233-0.229,0.631-0.478,1.217-0.377c0.073,0.013,0.146,0.024,0.219,0.036
			c4.508,0.726,9.189-0.413,12.866-3.134c3.734-2.765,6.209-6.996,6.787-11.59c0.001-0.01,0.014-0.104,0.015-0.115
			c0.073-0.589,0.426-0.899,0.709-1.055c0.41-0.227,0.831-0.239,1.261-0.037c7.169,3.372,15.734,6.126,24.801,9.043
			c10.109,3.252,21.568,6.937,33.387,12.188c3.955,1.758,8.587-0.024,10.343-3.98c1.758-3.955-0.024-8.587-3.98-10.344
			c-12.585-5.591-24.467-9.414-34.951-12.785c-8.946-2.878-16.672-5.362-22.928-8.305c-4.933-2.322-10.727-2.137-15.499,0.493
			c-4.774,2.632-8.026,7.438-8.706,12.924c-0.063,0.499-0.341,0.799-0.562,0.963c-0.219,0.162-0.584,0.336-1.068,0.254
			c-0.066-0.011-0.132-0.022-0.197-0.031c-5.347-0.865-10.832,0.871-14.701,4.676c-3.914,3.848-5.742,9.384-4.889,14.805
			c1.08,6.885,1.303,15.036,1.561,24.474c0.805,29.423,1.914,69.183,30.854,113.457c-1.682,1.679-2.982,3.734-3.726,6.026
			c-0.311,0.959-0.519,1.943-0.632,2.935c-48.225,20.283-71.371,52.326-88.433,75.965c-5.507,7.629-10.261,14.217-14.995,19.26
			c-3.74,3.975-5.357,9.547-4.327,14.904c1.01,5.257,4.464,9.76,9.266,12.106c0.112,0.06,0.226,0.116,0.341,0.17
			c0.45,0.211,0.649,0.566,0.737,0.826c0.087,0.257,0.141,0.654-0.087,1.086c-0.056,0.107-0.11,0.214-0.161,0.323
			c-2.409,4.791-2.426,10.478-0.029,15.286c2.447,4.911,7.143,8.362,12.568,9.235c6.882,1.099,14.705,3.405,23.764,6.077
			c18.542,5.467,41.505,12.238,69.646,12.238c13.21,0,27.563-1.5,43.132-5.32c1.078,2.177,2.66,4.096,4.652,5.543
			c2.184,1.587,4.755,2.535,7.408,2.799c1.558,16.085,5.001,31.134,10.473,45.771c1.178,3.15,4.165,5.095,7.341,5.095
			c0.912,0,1.839-0.16,2.744-0.498c4.054-1.515,6.112-6.031,4.595-10.085c-5.098-13.637-8.272-27.696-9.652-42.79
			c15.99-3.625,40.326-10.37,61.306-21.316l1.14,76.613c0.064,4.288,3.56,7.721,7.834,7.721c0.039,0,0.078,0,0.118-0.001
			c4.328-0.065,7.783-3.625,7.72-7.953l-1.1-73.991c22.219,10.709,47.113,16.986,61.61,20.034
			c-3.609,45.11-22.941,73.346-38.628,96.234c-5.408,7.891-10.517,15.344-14.15,22.452c-0.213,0.418-0.556,0.666-1.018,0.735
			c-0.325,0.048-0.797,0.016-1.214-0.415c-0.11-0.114-0.224-0.224-0.341-0.33c-3.208-3.129-7.572-4.879-12.072-4.852
			c-4.599,0.042-9.039,1.973-12.209,5.303c-0.057,0.057-0.113,0.116-0.169,0.174c-0.401,0.432-0.866,0.472-1.189,0.433
			c-0.465-0.059-0.816-0.298-1.044-0.709c-3.823-6.951-9.137-14.221-14.763-21.919c-5.68-7.771-12.117-16.578-18.094-26.517
			c-2.23-3.708-7.045-4.908-10.755-2.677c-3.708,2.231-4.907,7.047-2.677,10.756c6.34,10.542,12.999,19.65,18.872,27.688
			c5.552,7.595,10.346,14.154,13.684,20.224c2.629,4.778,7.427,8.033,12.837,8.709c0.699,0.087,1.399,0.131,2.096,0.131
			c4.643,0,9.149-1.906,12.383-5.307c0.056-0.056,0.111-0.113,0.165-0.17c0.336-0.362,0.732-0.44,1.005-0.442
			c0.004,0,0.008,0,0.014,0c0.271,0,0.658,0.074,0.994,0.42c0.111,0.114,0.225,0.225,0.342,0.331
			c3.813,3.722,9.192,5.462,14.464,4.671c5.426-0.816,10.155-4.222,12.646-9.105c3.172-6.205,7.782-12.931,13.121-20.719
			c16.031-23.389,37.753-55.105,41.429-105.201c0.743-0.37,1.459-0.798,2.136-1.29c2.828-2.053,4.839-5.05,5.725-8.405
			c15.537,3.745,29.833,5.243,42.984,5.243c30.49,0,54.86-8.001,74.442-14.429c8.938-2.935,16.658-5.469,23.452-6.766
			c5.348-1.016,9.925-4.564,12.244-9.494c2.323-4.939,2.136-10.742-0.501-15.523c-0.011-0.021-0.036-0.064-0.058-0.104
			c-0.224-0.424-0.177-0.817-0.096-1.073c0.074-0.246,0.245-0.572,0.623-0.793c0.029-0.014,0.061-0.028,0.09-0.043
			c4.94-2.424,8.427-7.109,9.328-12.531C512.666,295.084,510.886,289.536,507.014,285.664z M361.642,36.425
			c9.009-3.204,17.52-6.23,24.625-9.837c0.424-0.214,0.849-0.213,1.268,0.004c0.281,0.146,0.631,0.435,0.73,0.987
			c0.004,0.026,0.007,0.052,0.012,0.078c0.664,4.594,3.211,8.774,6.991,11.467c3.78,2.694,8.567,3.734,13.128,2.864
			c0.051-0.01,0.112-0.023,0.177-0.037c0.543-0.08,0.918,0.153,1.144,0.364c0.34,0.319,0.483,0.718,0.422,1.19
			c-0.997,7.878-0.97,16.895-0.94,26.441c0.093,30.135,0.189,67.352-27.875,110.437c-14.949-6.456-38.813-15.47-62.467-19.04
			l48.445-68.82c2.492-3.539,1.642-8.428-1.896-10.92c-3.539-2.491-8.429-1.641-10.919,1.898l-47.144,66.973
			c-11.756-21.989-28.441-41.954-38.405-52.961C299.609,58.502,333.879,46.297,361.642,36.425z M156.828,343.37
			c-45.125,11.388-78.585,1.542-105.697-6.452c-9.178-2.706-17.848-5.262-25.717-6.519c-0.467-0.075-0.811-0.328-1.021-0.75
			c-0.146-0.292-0.261-0.75,0.017-1.276c0.056-0.107,0.111-0.215,0.162-0.324c2.028-4.039,2.372-8.784,0.933-13.079
			c-1.444-4.314-4.598-7.911-8.676-9.912c-0.119-0.064-0.24-0.123-0.363-0.181c-0.531-0.248-0.715-0.676-0.775-0.992
			c-0.088-0.459,0.03-0.864,0.357-1.212c5.43-5.785,10.702-13.087,16.283-20.82c16.708-23.148,37.335-51.693,80.78-70.255
			c7.45,12.924,21.063,34.477,38.005,52.144l-71.612,24.457c-4.096,1.399-6.282,5.854-4.884,9.95
			c1.112,3.257,4.157,5.306,7.416,5.306c0.84,0,1.695-0.136,2.533-0.422l73.497-25.101
			C154.114,301.551,155.305,327.092,156.828,343.37z M337.638,260.289c-3.99,3.578-5.77,9.055-4.645,14.294
			c6.159,28.667,2.945,62.951,1.182,76.951c-13.867-2.647-47.477-10.181-72.843-24.903c-2.319-1.345-4.916-2.018-7.514-2.018
			c-2.598,0-5.197,0.673-7.514,2.018c-25.366,14.715-58.959,22.252-72.819,24.9c-1.767-14.007-4.987-48.302,1.173-76.978
			c1.125-5.24-0.654-10.718-4.645-14.293c-21.833-19.574-39.381-49.197-46.183-61.561c12.779-6.011,44.41-19.678,73.591-22.674
			c4.4-0.452,8.338-2.841,10.801-6.416c0.081-0.112,0.153-0.229,0.228-0.344c0.426-0.656,0.809-1.346,1.132-2.074
			c11.867-26.812,34.598-52.652,44.248-62.942c9.655,10.291,32.401,36.141,44.27,62.958c0.549,1.239,1.257,2.381,2.095,3.405
			c0.015,0.018,0.031,0.034,0.046,0.053c2.473,2.996,6.06,4.97,10.02,5.377c29.171,2.996,60.792,16.651,73.568,22.659
			C377.027,211.074,359.475,240.713,337.638,260.289z"/>
	</g>
</g>
<g>
	<g>
		<path d="M329.696,213.58c-1.336-4.117-5.763-6.369-9.874-5.031l-55.992,18.194v-58.878c0-4.328-3.508-7.837-7.837-7.837
			c-4.328,0-7.837,3.509-7.837,7.837v58.878l-55.993-18.194c-4.116-1.339-8.537,0.915-9.874,5.032
			c-1.338,4.116,0.915,8.538,5.031,9.875l55.993,18.194l-34.605,47.633c-2.544,3.501-1.768,8.403,1.733,10.947
			c1.391,1.01,3.003,1.497,4.6,1.497c2.423,0,4.813-1.12,6.347-3.231l34.605-47.633l34.606,47.632
			c1.534,2.111,3.923,3.231,6.346,3.231c1.597,0,3.209-0.487,4.6-1.497c3.503-2.544,4.278-7.445,1.733-10.947l-34.605-47.633
			l55.992-18.194C328.781,222.118,331.035,217.696,329.696,213.58z"/>
	</g>
</g>
</svg>