<?xml version='1.0' encoding='iso-8859-1'?>
<!-- Uploaded to: SVG Repo, www.svgrepo.com, Generator: SVG Repo Mixer Tools -->
<svg fill="#E50061" height="800px" stroke="#E50061" width="800px" version="1.1" xmlns="http://www.w3.org/2000/svg" viewBox="0 0 264.526 264.526" xmlns:xlink="http://www.w3.org/1999/xlink" enable-background="new 0 0 264.526 264.526">
  <g>
    <path d="m264.526,82.638c0-45.563-33.243-82.5-74.25-82.5-21.758,0-41.328,10.399-54.908,26.968 1.123,1.13 2.226,2.294 3.304,3.492 16.673,18.525 25.854,43.044 25.854,69.04 0,18.931-4.89,37.064-13.975,52.685 7.585,5.35 16.096,9.222 25.215,11.23-0.781,1.261-1.657,2.743-1.657,4.336 0,4.304 3.083,7.833 7.083,8.212v88.288h17v-88.289c5-0.379 7.667-3.908 7.667-8.212 0-1.593-0.376-3.075-1.157-4.336 34.059-7.498 59.824-40.869 59.824-80.914z"/>
    <path d="m89.61,184.888c0-1.593-0.251-3.075-1.032-4.336 34.059-7.498 59.844-40.869 59.844-80.914 0-45.563-33.191-82.5-74.198-82.5-41.007,1.06581e-14-74.224,36.937-74.224,82.5 0,40.045 25.695,73.416 59.753,80.914-0.781,1.261-1.4,2.743-1.4,4.336 0,4.473 3.84,8.104 7.84,8.237v4.651 66.611h16v-66.706-4.648c4-0.603 7.417-4.014 7.417-8.145z"/>
  </g>
</svg>