<?xml version="1.0" encoding="iso-8859-1"?>
<!-- Uploaded to: SVG Repo, www.svgrepo.com, Generator: SVG Repo Mixer Tools -->
<!DOCTYPE svg PUBLIC "-//W3C//DTD SVG 1.1//EN" "http://www.w3.org/Graphics/SVG/1.1/DTD/svg11.dtd">
<svg fill="#000000" version="1.1" id="Capa_1" xmlns="http://www.w3.org/2000/svg" xmlns:xlink="http://www.w3.org/1999/xlink" 
	 width="800px" height="800px" viewBox="0 0 571.771 571.771"
	 xml:space="preserve">
<g>
	<g>
		<path d="M166.388,257.338c-2.754-2.142-6.426-3.672-9.792-5.508c-3.672-2.142-7.038-4.59-10.404-7.038
			c-1.224-0.918-2.754,0.612-1.53,1.53c5.814,4.896,13.158,11.322,20.809,12.546C166.693,259.174,167.306,257.95,166.388,257.338z"
			/>
		<path d="M171.283,252.749c-6.12-5.202-14.382-8.568-21.42-12.546c-1.224-0.612-2.448,1.224-1.224,2.142
			c6.731,4.284,14.076,9.486,21.42,12.546C171.283,255.196,172.201,253.36,171.283,252.749z"/>
		<path d="M176.485,247.546c-7.344-4.896-15.3-8.568-22.644-14.076c-1.225-0.918-2.754,1.224-1.836,2.142
			c7.037,5.508,14.688,11.628,23.256,14.382C176.791,250.3,177.403,248.464,176.485,247.546z"/>
		<path d="M181.075,282.43c-2.142,0-6.426-4.896-7.956-6.426l-7.344-6.12c-1.836-1.53-4.284,0.918-2.448,2.448
			c4.284,3.672,8.568,7.65,12.853,11.322c1.836,1.53,3.978,3.366,6.12,1.224C183.218,283.96,182.3,282.43,181.075,282.43z"/>
		<path d="M205.861,340.876c-0.612-0.611-0.918-1.223-1.224-1.836c-0.307-0.611-1.225-0.307-1.53,0.307
			c-3.06-1.225-6.12-2.754-9.18-4.285c-0.612-0.305-1.225,0.613-0.612,0.918c3.672,1.836,7.65,3.979,11.322,6.121
			C205.249,342.712,206.167,341.794,205.861,340.876z"/>
		<path d="M278.689,178.696c-6.426-5.202-12.852-10.098-19.584-14.994c-0.612-0.612-1.836,0.612-0.918,1.224
			c6.426,5.202,12.546,10.71,19.278,15.3C278.384,181.145,279.607,179.614,278.689,178.696z"/>
		<path d="M339.583,322.517c-3.06-3.672-7.038-7.039-10.71-10.404c-1.224-1.225-3.06,0.611-1.836,1.836
			c3.672,3.672,7.038,7.344,11.016,10.404C339.583,325.271,340.501,323.435,339.583,322.517z"/>
		<path d="M266.756,378.208c-0.307-0.611-0.612-0.918-0.918-1.529c-0.307-0.613-1.225-0.613-1.53-0.307
			c-6.732-3.979-13.464-7.344-20.196-11.016c-1.53-0.918-2.754,1.529-1.224,2.143c7.344,3.977,14.688,8.262,22.338,11.934
			C266.144,380.351,267.367,379.433,266.756,378.208z"/>
		<path d="M270.121,373.007c-3.06-2.449-6.731-3.979-10.098-5.508c-3.978-1.836-7.956-3.672-11.934-5.508
			c-1.53-0.613-2.755,1.529-1.225,2.141c3.979,1.836,7.956,3.672,11.935,5.508c3.365,1.836,6.731,3.979,10.71,4.896
			C270.121,374.843,270.733,373.618,270.121,373.007z"/>
		<path d="M290.317,384.022c-0.307-0.611-0.918-0.918-1.225-1.529c-0.611-0.613-1.224-0.307-1.529,0.305
			c-4.896-1.836-9.792-3.977-14.688-6.426c-1.224-0.611-2.447,1.225-1.224,1.836c5.508,3.061,11.322,5.508,17.441,7.65
			C290.317,386.165,290.93,384.634,290.317,384.022z"/>
		<path d="M293.071,378.208c-5.202-2.447-10.404-3.979-14.994-7.037c-1.224-0.918-2.447,1.223-1.224,2.141
			c4.59,3.061,10.098,6.121,15.605,7.039C293.377,380.351,294.295,378.821,293.071,378.208z"/>
		<path d="M571.531,378.515c3.366-42.229-29.376-78.643-64.872-103.122c2.142-3.672-1.53-8.568-6.12-6.12
			c-0.611,0.306-1.224,0.612-1.836,0.918c-8.874-5.508-17.748-10.404-26.316-14.382c-1.529-0.612-3.06-0.612-4.283-0.306
			c4.896-12.852,5.508-26.928,1.836-40.086c-5.814-20.502-36.721-42.228-25.092-65.484c2.142-4.284-1.53-10.404-6.732-8.568
			c-11.322,3.978-25.092-1.224-35.802-7.65c1.529-1.224,2.448-3.06,1.836-5.202c-4.284-14.688-14.688-26.622-28.152-33.66
			c-18.054-9.18-48.042-0.612-58.446-20.808c-1.529-2.754-6.426-1.53-6.119,1.53c0,0.612,0.306,1.224,0.306,2.142
			c-0.306,0.306-0.612,0.306-0.918,0.918c-17.136,28.764-52.02-1.836-77.112,8.262c-3.06,1.224-5.813,2.754-8.567,4.59
			C186.277,54.767,114.979,16.21,62.042,34.57c-2.755,0.918-4.284,3.06-4.591,6.12c-1.224,14.688,0.307,29.682,4.284,44.982
			c-0.612,1.53-0.306,3.06,1.225,3.978c6.731,23.868,18.666,47.124,33.048,67.626c-36.721,9.792-67.626,30.906-93.942,58.446
			c-2.754,2.754-2.754,7.344,0,10.098c37.944,37.332,85.68,59.976,138.618,64.872c-0.612,8.568-1.53,17.137,0,25.703
			c0,0.307,0.306,0.918,0.306,1.225c-36.72,59.059-42.228,130.969-26.01,197.676c0.918,3.367,4.59,5.814,7.956,4.59
			C182.3,499.69,230.953,459.298,258.8,402.995c6.426,1.223,13.157,1.836,19.89,1.836c9.792,0,28.764-5.203,44.676-5.814
			c2.142,30.906,11.628,59.977,29.07,85.986c11.321,16.83,42.228,57.527,65.79,56.916c19.277-0.613,34.884-38.557,41.31-53.244
			c9.486-22.338,20.502-57.527,10.404-82.008c32.742,3.979,66.401-2.143,92.412-20.809c0.611-0.611,1.224-1.225,1.529-1.836
			c0.307,0,0.307,0.307,0.612,0.307c3.06,2.141,7.344-1.836,6.12-4.896C571.226,379.126,571.226,378.821,571.531,378.515z
			 M466.573,265.601c5.813,3.672,11.934,7.65,18.054,11.934c-12.546,7.038-25.092,14.688-37.638,21.727
			c-3.061,1.836-0.918,7.344,2.448,6.119c14.994-5.814,30.6-12.545,44.676-21.113c9.486,6.732,18.972,14.076,27.234,22.031
			c-3.366,2.143-6.732,4.59-10.099,6.732c-5.813,3.672-11.322,7.344-17.136,11.016c-16.83-7.037-33.66-11.934-48.96-14.076
			c-1.836-7.648-5.814-14.381-11.935-19.889c12.853-5.203,23.868-14.077,30.906-26.623
			C464.737,264.07,465.35,264.988,466.573,265.601z M381.199,346.69c4.284,2.754,9.18,5.508,14.382,7.037
			c-1.53,0.613-3.06,1.531-4.59,2.143c-1.53-0.611-2.754-0.918-4.284-1.529c-2.754-1.225-5.508-2.754-7.956-4.59
			c-2.142-1.531-3.978,1.836-2.142,3.365c2.448,1.836,5.508,3.979,8.874,5.508c-0.612,0.307-1.53,0.613-2.143,1.225
			c-3.672-2.143-8.262-3.672-12.239-5.508c-1.53-0.613-3.061,1.529-1.53,2.447c3.366,1.531,6.731,3.672,10.098,5.203
			c-1.529,0.918-3.06,1.529-4.59,2.754c-3.978-1.836-8.262-3.367-11.934-5.814c-2.143-1.225-3.672,1.836-1.836,3.061
			c3.06,2.141,6.426,3.977,10.098,5.508c-1.53,1.223-3.366,2.447-4.896,3.977c-1.225-0.305-2.143-0.611-3.366-0.918
			c-0.918-0.305-1.53,1.225-0.307,1.531c0.918,0.305,1.53,0.305,2.448,0.611c-0.918,0.611-1.836,1.529-2.448,2.143
			c-0.918,0-1.529,0.611-1.224,1.223c-0.306,0.307-0.612,0.613-0.918,0.918c-0.306-0.305-0.918-0.611-1.224-0.611
			c-1.225-0.611-2.448-1.529-3.673-2.447c-0.918-0.918-2.142-0.307-2.754,0.611c0,0,0-0.307-0.306-0.307
			c-7.65-3.365-15.912-5.508-23.562-8.566c-0.307,0-0.612,0-0.612,0.305c0.306-0.305,0.306-0.611,0.306-1.223
			c-0.918-1.836-1.53-2.754-3.366-3.672c-0.611-0.307-1.224,0-1.529,0.611c-4.896-2.754-9.486-5.508-14.382-8.262
			c2.447-2.754,4.283-5.508,5.813-8.568l0,0c6.12,2.754,12.24,5.814,18.054,8.568c0.918,0.611,2.143-0.918,1.225-1.836
			c-1.53-1.531-3.061-2.754-4.896-3.672c-0.611-0.307-1.224,0.305-0.918,0.918c-4.284-1.836-8.567-3.672-12.546-5.508
			c0,0,0,0-0.306,0c0.306-0.613,0.611-0.918,0.918-1.531c3.06,1.836,6.426,3.061,9.792,3.979c4.284,1.836,8.262,3.979,12.546,6.119
			c0.306,0,0.306,0,0.612,0c5.508,3.367,11.628,6.426,17.748,8.568c1.836,0.613,2.754-1.836,1.529-2.754
			c-0.611-0.611-1.224-1.529-1.836-2.143c-0.611-0.611-1.53-0.305-1.836,0c-5.813-2.754-11.628-5.812-17.136-8.873l0,0
			c3.06,0,5.813-0.307,8.874-0.918c0,0.611,0.306,1.225,0.918,1.529c5.202,3.672,11.628,7.957,18.054,8.568
			c1.836,0.307,2.143-2.447,0.918-3.061c-4.896-3.059-10.403-4.895-15.3-7.955c1.53-0.307,3.06-0.918,4.284-1.225l0,0
			c3.978,3.061,9.486,6.732,14.688,6.732c1.836,0,2.143-2.143,0.918-3.061c-3.06-2.141-6.731-3.672-10.403-5.508
			c0.918-0.305,2.142-0.918,3.06-1.225c0,0.92,0.612,2.143,1.836,2.143c3.979,0.307,7.956,1.836,11.935,1.836
			c1.529,0,2.142-2.141,0.918-3.059c-3.061-1.838-6.732-2.143-10.404-2.449c2.142-0.918,4.284-1.836,6.426-2.754
			c2.143,0.611,3.979,1.836,5.508,3.365c1.225,1.225,2.755-0.611,1.53-1.529c-1.224-1.529-2.754-2.447-4.59-3.061
			c2.142-0.918,4.59-2.141,6.732-3.059c0,0,0,0,0.306,0.305c5.508,2.754,10.71,5.508,16.218,7.957
			c3.672,1.836,7.65,4.283,11.935,5.201c-1.225,0.918-2.448,1.836-3.979,2.449c-2.448,1.529-4.896,2.754-7.65,3.977
			c0,0,0-0.305-0.306-0.305c-5.508-3.061-11.322-5.203-16.83-8.568C380.894,340.265,378.14,344.854,381.199,346.69z M386.095,389.53
			c-7.956,4.283-15.3,10.404-22.644,15.605c-0.918,0.613-1.836,1.225-2.448,1.836c5.202-13.158,14.382-21.725,24.786-28.457
			C385.483,381.88,385.789,385.552,386.095,389.53z M190.562,338.122c0.918,0.918,2.142,2.143,3.06,3.061
			c-4.283-1.225-8.567-2.449-12.546-3.061c-0.611,0-0.918,0.918-0.306,1.225c-6.12-3.367-12.24-5.508-18.054-9.793
			c-4.591-5.508-7.038-11.627-8.263-17.748c2.754,3.061,5.202,5.814,8.263,8.262c-0.612,0.613-0.612,1.531,0,2.143
			c6.731,4.59,13.157,9.793,20.502,13.465c1.224,0.611,2.754-0.613,1.836-1.836c-0.612-0.918-0.918-1.225-1.53-1.836
			c-0.306-0.307-0.612-0.307-0.918,0c-5.814-3.979-11.628-7.344-17.442-11.322c0.307-0.307,0.612-0.611,0.307-1.225
			c-0.307-0.918-0.612-1.529-0.918-2.143c-0.307-0.918-1.225-0.918-1.836-0.305c-3.061-2.754-6.12-5.508-8.874-8.568
			c-0.307-2.143-0.307-4.59-0.307-6.732c4.896,3.979,10.404,7.957,16.219,10.711c1.529,0.611,2.447-1.225,1.224-2.143
			c-5.814-3.979-11.935-7.955-17.442-12.24c0-2.143,0-3.979,0.307-6.119c4.283,3.672,8.567,7.037,13.157,10.404
			c2.143,1.529,7.038,7.648,10.099,5.201c0.611-0.611,0.306-1.529-0.307-1.836c0,0,0,0-0.306,0c-0.306-0.307-0.918-0.307-1.224,0
			c-0.918,0-9.792-7.344-10.71-8.262c-3.672-2.754-7.038-5.508-10.71-8.262c0-1.836,0-3.673,0-5.203c0,0.306,0,0.306,0.306,0.612
			c3.672,3.673,7.65,7.038,11.934,10.403c3.366,2.754,7.038,5.814,11.322,7.346c1.224,0.611,2.142-1.225,1.224-2.143
			c-3.06-3.061-7.037-5.203-10.71-7.65c-4.283-3.061-8.262-6.426-11.934-9.792c-0.918-0.612-1.836-0.306-2.142,0.612
			c0-3.366,0-7.038,0-10.404c0.918,0.918,2.142,1.836,3.06,3.06c-0.306,0.612-0.306,1.224,0.306,1.53
			c6.12,6.12,13.465,12.24,21.727,15.3c1.836,0.611,2.448-1.836,1.224-2.754c-7.038-4.896-14.076-9.181-20.502-14.995
			c0-0.306,0-0.306,0-0.612c-1.53-2.142-3.978-3.978-6.12-5.202c-0.306-2.448-0.918-4.59-1.224-7.038
			c0.918,0.612,1.836,1.224,2.754,1.836c2.448,1.53,7.956,5.814,10.71,2.754c0.612-0.612,0-2.142-0.918-1.836
			c-2.448,0.918-9.486-4.284-11.628-5.508c-0.918-0.612-1.53-1.224-2.142-1.836c-3.366-9.18-9.486-16.83-18.055-20.196
			c0.307-0.612,0.612-1.224,0.918-1.53c3.672,1.836,7.65,3.978,11.322,5.508c0.918,0.306,1.53-1.224,0.612-1.836
			c-3.672-2.142-7.345-3.672-11.017-5.508c0.918-1.224,1.53-2.448,2.143-3.978c4.284,2.448,8.567,5.202,13.157,7.038
			c0.919,0.306,2.448-0.612,1.53-1.53c-0.306-0.612-0.918-1.224-1.224-1.836c-0.612-0.612-1.225-0.612-1.53,0
			c-3.672-2.142-7.038-3.978-10.71-5.508c0.612-1.53,1.53-3.06,1.836-4.896c4.59,2.754,9.486,5.508,14.382,7.038
			c0.918,0.306,1.53-0.612,1.225-1.224c0,0.306,0.306,0.612,0.611,0.918c7.956,4.896,15.912,10.098,23.562,15.606
			c-0.612,6.732,0.612,13.464,2.142,19.584c-2.754-2.142-5.508-4.59-7.956-7.038c-1.529-1.53-3.978,0.918-2.447,2.448
			c3.672,3.978,7.956,8.262,12.239,11.628c0,0.612,0.307,1.224,0.307,1.53c-1.836-1.224-3.672-2.448-5.509-3.672
			c-3.06-2.142-5.813-4.59-8.262-7.344c-1.53-1.836-3.978,0.918-2.448,2.448c4.284,4.59,10.099,10.71,16.524,12.24
			c0.306,0,0.306,0,0.612,0c2.754,11.933,3.365,23.869-7.956,37.638c-0.918,1.223-1.53,2.447-1.53,3.979
			c-1.836-1.225-3.366-2.143-4.896-3.367c-1.53-0.918-2.755,1.225-1.53,2.449c2.448,1.836,4.896,3.672,7.344,5.508
			c0.918,1.529,2.142,2.754,4.284,3.059c2.754,1.836,5.202,3.367,7.956,4.59c1.224,0.613,2.448-1.529,1.224-2.447
			c-0.611-0.611-1.53-1.225-2.448-1.836c2.143,0.307,4.591,0.611,6.732,0.918c-0.612,0.611-0.612,1.529,0.306,1.836
			c5.202,3.672,10.71,7.344,16.219,10.711l0,0c-3.366,0.918-6.732,1.529-9.792,2.141v-0.305c-2.448-2.449-4.896-4.285-7.65-6.426
			C190.867,335.675,189.644,337.204,190.562,338.122z M293.684,155.44c-0.612-0.918-1.225-2.142-1.836-3.06
			c-0.612-0.918-1.53-0.612-2.143,0c-2.754-2.142-5.508-4.284-8.567-6.426c0.918-0.306,1.836-0.918,2.447-1.224l0.307-0.306
			c4.59,3.978,9.792,7.956,15.3,9.18c1.224,0.306,2.448-1.224,1.224-2.448c-3.06-2.448-6.426-3.978-9.485-6.12
			c-1.53-0.918-2.755-2.142-4.284-3.06c0.918-0.918,1.836-1.836,2.754-2.754c5.202,4.284,10.403,8.568,16.218,11.016
			c1.53,0.612,3.06-1.224,1.836-2.448c-4.59-4.284-10.404-7.956-15.605-11.934c0.918-1.224,1.529-2.754,2.447-4.284
			c7.345,5.814,13.158,13.464,21.727,16.83c-0.918,0.306-1.53,1.53-0.612,2.448c3.06,2.754,6.732,5.814,10.098,8.568
			c-1.529,0.612-3.06,1.224-4.59,1.836c-3.978-3.06-8.262-5.814-11.934-9.18c-1.53-1.224-3.979,0.918-2.143,2.142
			c3.366,3.06,7.038,6.12,10.71,8.874c-1.224,0.612-2.447,1.224-3.672,2.142c-4.283-3.978-9.18-7.344-13.464-11.628
			c-1.224-1.224-3.366,0.612-2.142,2.142c3.672,3.978,7.956,8.568,12.546,11.934c-1.53,1.224-2.754,2.448-3.979,3.672
			c-0.918-0.612-1.529-1.53-1.836-1.836c-1.224-1.224-2.447-2.448-3.672-3.672c-3.06-2.754-5.813-5.814-8.874-8.568
			c-1.224-0.918-2.447,0.612-1.529,1.53c3.365,3.672,6.731,7.344,10.098,11.016c0.918,1.224,2.142,2.754,3.672,4.284
			c-0.612,0.918-1.224,1.53-1.836,2.448c-3.06-3.06-6.732-5.202-10.098-7.65c-3.366-2.754-6.426-5.814-9.486-8.874
			c-1.224-1.224-3.06,0.612-1.836,1.836c5.508,6.12,12.546,13.464,20.196,16.83c-0.307,0.612-0.918,1.224-1.225,1.836
			c-2.448-1.53-5.202-2.448-7.956-3.06c-0.306-0.306-0.611-0.306-0.918-0.306c-0.306,0-0.611,0-0.918-0.306
			c-1.836-1.53-8.874-6.732-9.485-7.038c-3.061-2.754-6.12-5.814-8.874-8.874c-0.307-0.306-0.612-0.306-0.918-0.306
			c-4.284-3.06-8.874-5.814-12.853-9.18c1.53-0.306,3.061-0.918,4.896-1.224c4.896,4.59,10.404,8.874,16.523,11.628
			c0.918,0.306,2.143-0.612,1.225-1.53c-4.59-3.978-9.486-7.344-14.382-11.016c1.224-0.306,2.754-0.612,3.978-0.918
			c2.142,1.836,4.284,3.672,6.426,5.202c2.143,1.53,5.202,4.896,7.956,4.59c0.612,0,1.225-0.306,1.225-0.918
			c0-0.306,0-0.306,0.306-0.612c0.306-0.918-0.918-1.836-1.836-1.224c-1.224,1.836-7.344-2.448-12.24-6.426
			c1.836-0.306,3.366-0.918,4.896-1.53c4.59,3.672,9.18,7.344,14.075,10.098C293.071,158.5,294.602,156.97,293.684,155.44z
			 M373.243,164.008c-4.896-3.366-10.098-6.12-14.688-9.792c-0.306-0.306-0.611-0.306-0.918-0.306
			c-0.306-0.306-0.611-0.612-0.918-0.612c-3.365-0.306-7.955-5.814-10.403-7.956c-1.53-1.224-2.754-2.448-4.284-3.672
			c4.896,0.918,9.18,2.448,13.158,4.284c4.284,4.284,8.874,8.568,13.77,11.934c0.612,0.306,0.918,0.306,1.53,0
			c2.754,3.672,5.202,7.65,7.038,12.852c-1.836-1.836-3.672-3.366-5.508-4.896c0,0,0.306,0,0.306,0.306
			C373.549,167.068,374.773,164.926,373.243,164.008z M349.069,152.992c2.448,2.142,4.59,4.284,7.649,3.366c0,0,0,0,0,0.306
			c2.143,1.836,4.284,3.366,6.427,4.896c-3.979-1.836-7.956-3.06-12.24-3.672c-2.754-3.366-6.12-6.12-9.18-8.874
			c-0.918-0.612-1.836-0.612-2.448,0v-0.306c-2.754-2.754-5.814-5.508-8.874-8.262l0,0c1.836,0.306,3.366,0.612,5.202,0.612
			C339.89,144.73,344.479,148.708,349.069,152.992z M337.441,150.238c0.611,0.612,1.529,0.306,1.836,0c0,0.306,0,0.306,0.306,0.612
			c1.836,2.142,3.672,3.978,5.814,6.12c-0.918,0-1.836-0.306-2.448-0.306c-3.06-2.448-6.426-4.59-9.792-6.732
			c0-0.612,0-0.918-0.306-1.53c-3.366-3.366-7.345-6.732-11.628-9.486c1.224,0,2.447,0.306,3.672,0.306
			C328.873,143.2,333.157,146.566,337.441,150.238z M326.119,148.096c-0.306,0.612-0.306,1.53,0.306,2.142
			c3.061,2.448,6.12,4.896,9.486,7.038c-1.53,0.306-3.366,0.612-4.896,0.918c-3.979-3.366-8.874-6.12-12.853-9.18
			c0.918,0,1.53-1.53,0.612-2.142c-7.344-5.508-14.382-12.546-22.338-17.442c0.306-0.612,0.611-0.918,0.918-1.53
			c3.06,3.672,7.038,6.426,12.546,8.874C315.104,140.446,320.611,144.424,326.119,148.096z M237.686,199.811
			c-26.316,41.616,41.922,58.446,59.67,85.374c0,0.306-0.307,0.306-0.307,0.612c-10.098,48.654-87.821,2.142-53.55-31.824
			c2.755-2.754,1.53-7.956-2.447-8.874c-56.61-13.77-16.83-93.942,29.069-56.916c-1.836,2.448-3.672,5.202-4.59,7.956
			c-4.59,4.896-8.567,9.792-12.24,15.912c-2.142,3.978-4.896,7.956-7.038,12.24c-2.754-5.814-3.672-12.546-0.918-20.808
			C247.172,198.28,240.439,195.526,237.686,199.811z M242.275,168.598c-2.142-1.224-4.284-2.754-6.426-4.284
			c0.918-1.53,2.142-3.06,3.672-4.284c3.978,3.06,8.262,5.814,12.852,7.344c0.918,0.306,1.836-1.224,0.612-1.836
			c-4.284-2.142-8.262-3.978-11.934-6.732c1.529-0.918,3.06-1.836,4.896-2.448c4.896,3.06,10.098,6.12,15.606,8.262
			c1.224,0.306,1.529-1.224,0.611-1.836c-4.283-2.754-8.874-5.202-13.157-7.65c1.836-0.612,3.978-1.224,6.119-1.836
			c0,0.306,0,0.306,0.307,0.612c4.284,3.672,9.18,7.65,14.382,10.098c0.306,0.306,0.612,0,0.918,0
			c4.284,5.202,9.18,10.098,14.688,14.076c-2.447,0.306-4.896,1.224-7.037,2.448c-1.225,0.918-2.755,1.836-3.979,3.06
			C267.979,171.353,255.127,167.068,242.275,168.598z M277.771,194.608c3.366-5.202,9.18-9.486,15.3-6.732
			c5.508,2.448,8.874,8.874,3.672,13.464c-6.12,4.896-14.994,1.224-21.113-1.53C275.936,197.975,276.854,196.138,277.771,194.608z
			 M231.26,149.626c-7.345,7.65-8.263,14.994-4.284,23.256c-7.038,3.366-13.464,8.262-17.748,14.382
			c-8.568,11.934-9.486,25.398-4.896,37.332c-0.306,0-0.611,0.306-0.611,0.306c-21.114,20.196-35.803-11.934-30.294-28.458
			c3.06-9.792,10.098-17.136,15.3-26.01c5.202-8.568,8.262-15.912,7.649-25.092c8.874-0.918,16.83-3.366,24.786-7.65
			c19.891-11.322,34.272-25.398,55.387-4.896C262.472,141.364,243.806,136.774,231.26,149.626z M170.06,175.331
			c-1.836-1.53-3.672-3.06-5.814-4.59c3.672-1.53,7.65-2.448,11.628-3.672C174.037,169.822,171.896,172.576,170.06,175.331z
			 M167.917,178.39c-0.611,1.224-1.529,2.142-2.142,3.366c-0.612-0.306-1.224-0.918-1.224-0.918c-1.53-0.918-3.061-2.142-4.59-3.06
			c-1.225-0.918-2.755-1.836-3.979-2.754c1.53-1.224,3.06-1.836,4.59-2.754C163.021,174.413,165.47,176.249,167.917,178.39z
			 M159.043,223.984c-5.508-3.672-11.628-6.732-17.441-10.404c0.306-2.142,0.612-3.978,0.612-6.12
			c5.201,3.978,10.403,7.65,16.218,10.404c0.918,3.978,2.448,7.956,4.896,11.628c0.612,1.224,1.53,2.142,2.448,3.06
			c-2.754-1.836-5.814-3.672-8.874-5.202c-1.224-0.612-2.142,0.612-2.142,1.53c0-0.306-0.307-0.306-0.307-0.612
			c-4.284-3.06-9.485-5.202-14.382-7.344c0-0.306,0.306-0.918,0.306-1.224c0.307-0.918,0.307-2.142,0.612-3.06
			c5.202,3.978,11.017,7.65,17.136,9.486C159.35,226.432,159.962,224.596,159.043,223.984z M160.268,191.854
			c0,0.306-0.306,0.612-0.612,1.224c-0.306,0.612-0.306,1.224-0.306,1.836c-0.612-0.306-1.225-0.612-1.53-1.224
			c-1.836-1.224-3.672-2.448-5.202-3.366c-1.836-1.224-3.672-2.448-5.813-3.672c0.306-0.918,0.611-1.836,1.224-2.448l0.306-0.306
			C152.006,186.346,155.983,189.406,160.268,191.854z M150.476,180.227c0.918-1.224,1.836-2.142,3.06-3.06
			c2.754,1.836,5.202,3.672,7.956,5.508c0.612,0.612,1.53,1.224,2.448,2.142c-0.612,1.224-1.224,2.142-1.836,3.366
			C158.125,185.428,154.147,182.98,150.476,180.227z M153.842,194.915c1.224,0.918,3.06,2.448,4.59,3.672
			c-0.307,1.53-0.612,2.754-0.918,3.978c-2.143-1.224-4.59-2.448-6.732-3.978c-2.448-1.53-4.59-3.06-6.731-4.59
			c0.306-1.836,0.918-3.366,1.529-5.202C148.333,191.242,151.088,193.079,153.842,194.915z M157.514,206.236
			c0,2.448,0,5.202,0.306,7.65c-5.202-3.06-10.098-6.12-14.994-9.792c0.307-1.836,0.307-3.366,0.612-5.202
			c0.306-0.306,0.306-0.918,0.612-1.53C148.027,201.034,152.617,204.094,157.514,206.236z M140.684,174.106
			c-2.143,3.06-3.979,6.732-5.202,10.71c-7.038-8.568-14.076-17.442-20.808-26.316c10.403,0.306,20.808,0.612,31.518,0.918
			c4.284,0,8.568,0.306,12.852,0.612C152.006,162.784,145.273,167.986,140.684,174.106z M193.928,313.948
			c3.672-6.426,6.426-13.465,7.038-21.42c1.529-18.054-9.792-33.048-9.181-50.796c6.12-0.918,11.628-3.978,15.912-9.18
			c5.202,8.568,13.158,15.606,22.645,19.89c-32.13,38.861,41.004,84.15,68.237,60.281c0.306,0.307,0.612,0.613,0.918,0.918
			c7.038,17.748,4.284,29.07-8.262,33.967c-13.77,4.896-25.704,3.672-36.107-3.672c-9.486-4.59-17.748-11.934-26.929-17.137
			C216.877,320.067,205.861,315.478,193.928,313.948z M302.251,268.966c-0.306,1.836-0.306,3.978-0.306,5.508
			c-3.979-7.038-9.792-12.852-16.83-18.36c-9.18-6.732-21.726-13.464-30.6-22.032c4.284-5.202,7.038-12.24,10.098-18.054
			c1.53-2.754,2.754-5.508,4.284-8.262c0.918,0,1.836-0.306,2.448-0.918c0.306-0.306,0.306-0.306,0.306-0.612
			c8.568,4.284,18.36,7.65,27.233,3.366c-0.306,11.934,3.673,25.704,14.076,30.906c3.979,2.142,7.65-2.142,6.12-6.12
			c-2.448-5.814-6.731-10.098-8.874-16.218c-2.142-5.814-2.142-12.24-1.836-18.36c0-0.612,0-1.224-0.306-1.836
			c0.611-3.672,0-7.344-1.836-10.71c11.934-19.278,36.107-30.906,56.609-14.994c24.48,18.972,19.891,55.692-10.403,67.32
			c-2.143,0.918-4.896,3.06-4.59,6.12c1.224,8.568,1.836,15.912-1.225,24.48c0.306,7.344-3.06,12.546-9.792,15.3
			c-7.344,8.874-15.912,8.874-25.704,0c2.448-7.956,4.284-16.218,8.568-22.644c7.956-12.546,21.42-19.89,30.294-31.824
			c9.792-13.158,14.688-32.742,0.612-44.982c-3.061-2.448-8.874-0.306-7.345,4.284c10.71,29.07-18.359,40.698-32.741,60.588
			C306.841,256.42,303.476,262.541,302.251,268.966z M408.739,221.537c1.53,2.142,3.06,4.284,5.202,5.814
			c0.306,0.306,0.918,0.306,1.224,0.306v0.306c0,0.306,0,0.918-0.306,1.224c-1.53-0.918-3.061-2.142-4.59-3.06
			c-2.448-1.836-4.591-3.978-6.732-6.12c0.306-0.306,0.612-0.306,0.918-0.918c0.306-1.53,0.306-1.836-0.306-3.366
			c-0.612-0.918-1.53-0.918-2.143-0.306c-3.672-3.06-7.344-6.426-10.71-9.792c-0.306-0.306-0.611-0.306-0.611-0.306
			c0-1.836,0-3.978,0-5.814c3.672,4.284,7.344,8.874,11.628,12.24c1.224,0.918,3.06-0.306,2.142-1.836
			c-3.978-6.12-9.792-11.628-14.688-17.136c-0.307-1.53-0.918-3.366-1.225-4.896c3.366,2.448,6.732,4.896,9.792,7.65
			c2.448,2.142,4.59,4.284,6.732,6.426l6.12,14.994C409.352,216.946,407.209,219.395,408.739,221.537z M388.237,185.123
			c-0.306-0.306-0.612-0.306-0.918,0c-0.307-0.612-0.307-0.918-0.612-1.53c0.612-0.306,0.918-0.918,1.225-1.224
			c3.672,1.53,7.037,3.06,10.71,4.284c1.224,2.754,2.447,5.814,3.365,8.568C397.724,191.548,392.827,188.182,388.237,185.123z
			 M387.625,219.7c3.061,3.366,6.732,6.732,10.404,9.486c0.306,0.306,0.612,0,0.918,0c-0.306,0.612-0.306,1.53,0.306,2.142
			c3.061,3.06,6.427,6.12,10.71,7.344c2.143,0.612,3.061-2.142,1.53-3.366c-3.366-2.142-6.426-3.978-9.18-6.732
			c-0.307-0.306-0.918-0.612-1.225-0.612c0.307-0.612,0.307-1.224,0.307-2.448c-0.307-1.224-1.53-1.53-2.448-0.612
			c-3.366-2.448-6.732-5.508-9.792-8.568c0.612-2.448,1.224-4.896,1.53-7.344c3.365,3.672,6.731,7.344,10.71,10.404
			c-0.612,0.306-0.612,1.224-0.307,1.836c3.061,4.284,8.263,9.486,13.464,11.322c-1.224,3.978-3.365,7.344-6.119,10.404l0,0
			c-0.307-0.612-1.225-0.918-2.143-0.612c-0.611-0.612-1.224-0.918-2.142-1.53c-1.225-0.918-2.448-1.836-3.672-2.448l-4.284-2.754
			l0,0c-1.836-1.836-4.59-2.754-7.038-4.59c-1.836-1.224-3.366-2.754-4.896-4.284C385.483,224.596,386.707,222.148,387.625,219.7z
			 M391.604,236.836c3.06,2.142,5.813,4.59,8.874,6.732c1.529,1.224,3.06,2.142,4.59,2.754c-2.143,2.142-4.284,4.284-6.426,6.426
			l0,0c-3.061-2.142-6.427-3.672-9.486-5.202c-1.224-0.612-2.448,1.224-1.224,2.142c3.06,1.836,6.426,3.672,9.485,4.896
			c-0.612,0.612-1.224,1.53-1.836,2.142c-0.918-1.224-2.142-2.142-3.366-3.06c-0.918-0.612-1.836,0.918-1.224,1.53
			c1.224,0.918,2.142,2.142,2.754,3.366c-2.754-1.224-5.508-3.06-7.65-4.896c0.918-0.612,1.225-1.836,0-2.448
			c-4.896-3.06-10.098-5.508-14.688-8.874c1.836-1.53,3.366-3.366,4.896-4.896c4.284,4.896,10.71,11.628,12.853,7.344
			c0.612-1.224-0.918-2.448-1.836-1.53c-0.307,0.306-5.508-4.284-9.181-7.956c1.53-1.836,2.755-3.672,3.979-5.508
			C385.177,232.552,388.237,235.306,391.604,236.836z M373.855,269.272c3.365,1.836,6.731,3.672,9.792,5.508
			c0.611,0.306,1.224,0.918,2.142,1.224c-0.306,1.53-0.918,3.06-0.918,4.59c-3.366-1.836-6.732-3.978-10.098-6.426h-0.307
			c0.612-0.306,0.918-1.224,0-1.836c-4.59-3.672-9.485-6.12-13.77-10.404c0.306-3.672,0.306-7.65,0-11.322
			c4.59,5.508,9.486,10.71,15.605,14.688c0.918,0.612,2.143,0,2.448-0.918c0-0.612,0-0.918,0-1.53
			c2.448,2.142,6.12,5.202,9.486,6.732c-0.612,1.224-1.224,2.142-1.53,3.366c-1.224-0.612-2.448-1.224-3.978-1.836
			c-2.754-1.224-5.202-2.448-7.956-3.672C373.855,266.824,372.631,268.661,373.855,269.272z M386.095,262.541
			c-2.447-1.53-4.59-3.06-6.731-4.59c-1.836-1.224-3.979,0.306-3.366,1.836c-0.306,0.306-0.306,0.612-0.306,0.918
			c-4.59-3.672-9.181-7.344-12.853-11.934c0.307-0.306,0.612-0.306,0.918-0.612c5.509,3.672,11.935,7.65,18.36,8.874
			c1.836,0.306,2.448-1.836,1.224-2.754c-4.896-3.366-10.403-5.814-15.912-8.262c0.919-0.612,1.53-1.224,2.143-1.836
			c4.284,3.366,8.874,6.732,13.77,8.568c0,0.306,0,0.612,0.307,0.918c3.06,3.06,6.426,5.202,9.792,7.038
			c-0.918,1.53-1.836,3.06-2.754,4.59C388.85,264.376,386.707,262.846,386.095,262.541z M306.229,300.79
			c4.284,5.814,10.098,11.016,16.83,13.77c1.224,0.307,1.836-1.223,0.918-1.836c-6.427-3.977-12.24-7.955-16.83-14.076
			c0.306-0.611,0.306-1.223,0.611-1.836c1.53,1.225,3.366,2.143,5.509,3.061c5.201,3.672,10.403,7.65,15.912,11.322
			c1.224,0.918,2.754-0.918,1.529-2.143c-0.611-0.611-0.918-0.918-1.529-1.529c-0.307-0.307-0.612-0.307-0.919-0.307
			c-2.447-1.529-4.59-3.059-7.037-4.895c3.06,0.611,5.508,0.918,7.955,0.918c-0.918,0.305-1.529,1.529-0.611,2.447
			c5.813,5.201,11.934,10.709,18.666,14.994c1.224,0.918,2.754-1.225,1.53-2.143c-5.202-4.59-10.711-8.873-15.912-13.158
			c0,0,0,0,0.306,0c0.918,0.307,1.836-1.223,0.918-1.836c-0.306-0.305-0.918-0.305-1.224-0.611c1.224-0.307,1.836-0.611,3.06-0.918
			c3.672,5.201,8.568,10.098,14.688,11.627c1.224,0.307,2.447-1.223,1.224-2.141c-4.59-3.672-8.874-6.426-12.546-10.404
			c1.836-0.611,3.366-1.836,4.896-2.754c0,0.305,0,0.611,0.307,0.918c2.447,3.365,5.813,6.732,10.098,7.344
			c1.53,0.307,2.754-1.836,1.224-2.754c-3.365-1.836-5.813-3.365-8.262-6.426c-0.306-0.307-0.612-0.613-0.918-0.613
			c0.918-0.918,1.836-1.836,3.061-2.754c3.06,2.754,6.119,5.51,9.485,7.65c1.225,0.918,2.448-0.918,1.53-1.836
			c-2.754-2.754-5.814-5.201-8.874-7.65c0.918-1.223,1.836-2.447,2.754-3.672c2.754,3.672,7.65,8.568,11.016,5.814
			c0.307-0.307,0.307-0.918,0.307-1.529c0-0.307,0-0.307,0-0.613c-0.307-0.918-1.53-1.223-2.143-0.611h-0.306
			c-1.53-0.611-2.754-2.143-3.978-3.061c-1.225-0.918-2.143-2.141-3.061-3.365c0.612-1.53,1.224-3.06,1.836-4.284
			c1.225,1.224,2.754,2.754,3.979,3.978c1.224,1.224,2.447,2.753,4.283,2.449c0.612,0,1.225-0.613,1.53-1.225
			c0.307-0.918,0.307-1.224-0.306-1.836c-0.306-0.612-0.918-0.918-1.836-0.612h-0.307c-1.224-0.918-2.754-2.754-3.672-3.672
			s-1.836-1.53-2.754-2.448c0.307-0.918,0.612-1.836,0.612-2.754c2.754,2.754,5.508,5.202,8.568,7.344
			c1.224,0.612,2.142-0.918,1.224-1.836c-2.754-3.366-5.814-6.12-9.18-8.874c0.306-1.836,0.306-3.366,0.611-5.202
			c3.672,3.672,7.956,7.344,12.546,8.568c-0.611,0.612-0.918,1.836,0,2.448c3.366,2.448,7.345,5.508,11.322,7.956
			c0,2.754,0.306,5.201,0.918,7.65c-6.12-3.061-13.158-6.426-13.158-6.121c0.918-1.529-1.224-2.753-2.142-1.223
			c-2.142,3.059,3.978,5.202,5.813,6.12c3.366,1.836,7.038,3.979,10.711,5.814c1.529,3.979,3.672,7.65,6.426,11.016
			c-7.65-5.508-17.137-9.791-25.092-13.77c-1.53-0.613-2.755,1.529-1.225,2.143c5.202,2.754,10.098,5.812,14.994,8.873
			c3.672,2.143,7.038,4.896,11.016,7.037c-0.918,0.613-2.142,0.918-3.06,1.531c-3.366-1.836-6.426-3.367-9.792-5.203
			c-3.06-1.529-11.016-4.59-12.24-8.262c-0.611-1.836-3.672-1.223-3.06,0.918c1.224,4.285,6.731,6.426,10.098,8.568
			c3.672,2.143,7.65,3.979,11.322,5.814c-1.53,0.918-3.366,1.529-4.896,2.447c-4.59-1.836-9.18-3.977-13.157-7.037
			c-0.918-0.613-2.143,0.918-1.225,1.529c3.672,2.754,7.344,5.203,11.628,7.039c-0.918,0.305-1.53,0.918-2.448,1.223
			c-0.306-0.305-0.611-0.918-1.224-1.223c-0.612-0.307-1.224,0-1.53,0.611c-6.119-2.754-11.934-5.508-17.136-9.18
			c-1.224-0.918-2.448,1.223-1.224,2.141c5.202,3.674,11.016,7.039,16.83,9.486c-1.53,0.613-3.061,1.531-4.59,2.143
			c0,0,0-0.307-0.307-0.307c-5.813-1.529-10.404-2.447-14.688-6.73c-0.918-0.918-2.448,0.611-1.53,1.529
			c3.06,3.365,7.65,6.119,12.24,7.344c-1.836,0.611-3.979,1.529-5.814,2.143c-4.284-1.836-8.567-3.367-12.546-5.508
			c-1.224-0.613-2.142,0.918-0.918,1.836c3.06,1.836,6.12,3.672,9.486,4.895c-7.345,2.143-14.994,3.367-22.338,3.061
			c0,0,0,0,0-0.307c-4.284-2.754-8.263-5.201-11.629-8.566c-0.611-3.061-2.142-5.814-3.978-8.568c1.53,1.225,3.06,2.447,4.59,3.365
			c0.612,0.307,1.225,0,1.225-0.611c4.283,4.59,9.485,9.18,14.993,11.627c1.225,0.613,2.754-0.918,1.53-1.836
			c-5.813-4.59-12.24-8.566-17.442-13.77c-0.918-0.611-1.836,0-1.836,0.918c-3.978-3.365-8.262-6.732-12.852-9.791
			C305.005,303.851,305.617,302.321,306.229,300.79z M419.755,358.624c0.918,3.061,2.143,6.426,3.061,9.486
			c1.224,4.896,2.754,9.793,4.59,14.383c-9.18-3.367-18.36-7.346-27.846-12.24C406.291,366.581,413.329,362.909,419.755,358.624z
			 M426.793,329.249c-0.918-0.307-1.836,0.305-1.836,1.529c-6.731-2.447-13.158-4.896-18.972-8.873
			c-2.143-1.531-3.979,1.836-1.836,3.365c5.813,3.979,12.239,7.344,18.972,9.18c-1.224,1.225-2.142,2.447-3.366,3.672l0,0
			c-8.567-4.283-17.441-7.65-25.704-12.24c5.814-3.059,11.322-5.814,16.219-7.955c4.896,3.979,11.321,8.262,17.441,10.098
			C427.1,328.636,427.1,328.942,426.793,329.249z M421.285,320.374c-3.06-1.529-5.814-3.672-8.262-5.508
			c0.611-1.836,0-4.283-0.918-6.119c6.426,3.977,12.546,7.955,19.277,11.32c-0.306,1.531-0.918,3.061-1.529,4.285
			C426.793,323.128,423.733,321.905,421.285,320.374z M407.516,303.851c-0.307-0.307-0.612,0-0.918,0
			c-2.448-2.447-3.979-4.59-4.896-7.344c10.404,4.59,19.584,10.098,28.458,17.135c0.612,0.307,1.224,0.307,1.53,0
			c0,0.918,0,1.836,0,2.754C424.345,311.501,415.777,307.522,407.516,303.851z M431.689,309.358
			c-0.307-0.611-1.225-0.611-1.836-0.307c-8.263-6.119-17.748-11.016-27.234-14.688c0.612,0.307,1.224,0.307,1.836,0.307
			c2.448,0,4.59,0,7.038-0.307c3.061,1.529,6.12,2.754,8.874,4.59c3.672,2.143,6.732,5.814,10.71,7.344l0,0
			C431.383,307.522,431.689,308.44,431.689,309.358z M417.001,294.058c2.143-0.305,3.979-0.611,6.12-0.918
			c2.448,2.143,4.284,4.59,5.508,7.039c-1.836-1.225-3.978-2.449-5.813-3.367C420.979,295.589,418.837,294.671,417.001,294.058z
			 M430.465,155.44c-1.836,8.262-0.918,15.912,3.366,25.398c9.18,20.196,26.622,23.256,27.234,49.878
			c0.918,27.54-18.055,44.982-41.616,50.796c-0.918,0-1.53,0-2.142,0.306c-4.284,0.918-8.568,1.53-13.158,1.53
			c-1.836,0-3.061,0.612-3.979,1.836c2.754-22.644,33.966-50.796,29.07-76.194c-3.979-20.808-20.196-34.578-40.392-38.556
			c-1.225-12.24-7.038-23.256-17.442-31.212c-9.792-7.956-31.212-8.568-48.042-12.24c32.436-32.436,52.02,8.568,76.194,23.562
			C409.657,156.665,420.062,157.583,430.465,155.44z M372.325,104.95c1.53,0.918,3.06,1.836,4.284,2.754
			c1.529,1.836,2.754,3.672,4.59,5.508c0.612,0.612,1.224,0.612,1.836,0.306l0,0c0.306,0.918,0.918,1.836,1.224,2.448
			c0.307,0.612,0.918,0.612,1.225,0.918c2.142,2.754,3.978,5.508,5.508,8.568c-3.979-3.672-7.038-8.568-11.322-11.934
			c-1.836-1.53-3.672-2.754-5.508-3.978c0.306-0.612,0.612-1.224-0.306-1.836c-1.225-1.224-2.754-2.142-3.979-3.366
			C371.102,104.338,371.713,104.645,372.325,104.95z M338.053,98.218c2.448,0.306,4.896,0.612,7.345,0.918
			c-0.612,0.612-1.225,1.53-0.612,2.754c0.306,0.918,0.918,1.224,1.53,2.142c-0.612,0-1.225,0-1.53,0.306
			c-0.612-0.306-1.224-0.612-1.836,0c0.306,0-3.366-3.366-6.12-6.12C337.135,97.913,337.441,97.913,338.053,98.218z M316.021,86.284
			c2.447,3.366,5.813,5.814,9.485,7.956c2.448,2.754,5.202,5.202,7.956,7.344c0.612,0.306,1.225,0.306,1.836,0
			c1.225,1.224,2.143,2.142,3.366,3.366c0.306,0.306,0.306,0.306,0.612,0.612c-1.53,0.612-3.061,1.224-4.284,1.836
			c-2.448-2.754-5.202-5.202-7.956-7.344c-0.306-1.224-0.918-2.142-2.142-3.06c-0.612-0.306-0.918-0.306-1.225,0
			c-3.06-2.754-5.813-5.202-8.874-7.956C315.104,88.121,315.715,87.203,316.021,86.284z M291.541,101.584c0.307,0,0.612,0,0.918,0
			c3.061,3.06,6.12,6.12,9.486,8.568c1.224,0.918,3.06-0.306,2.754-1.53c0-1.53-0.306-1.836-1.224-2.754
			c-0.307-0.612-0.918-0.612-1.53-0.306c-1.836-1.53-3.672-2.754-5.202-4.284c1.53-0.306,2.754-0.918,4.284-1.224
			c2.754,3.06,5.813,5.814,9.18,8.262c1.225,0.918,4.284,0,3.366-1.836c-0.918-2.142-1.836-3.978-3.06-6.12
			c1.529,1.53,3.365,3.06,5.201,3.978c1.53,0.918,3.061-0.612,2.754-2.142c0-0.612-0.306-1.224-0.306-1.836
			c-0.306-1.224-1.53-1.224-2.142-0.918c-1.836-1.53-3.672-3.366-5.202-4.896c0.612-0.612,0.918-1.224,1.53-1.836
			c3.672,3.672,7.649,7.344,11.934,10.404c0.306,0.306,0.918,0.306,1.224,0.306c2.143,2.142,4.284,4.284,6.427,6.426
			c-1.836,1.224-3.366,2.142-4.896,3.366c-2.448-2.142-4.896-3.978-7.038-6.426c-1.53-1.836-4.59,0-3.06,1.836
			c1.836,2.754,4.284,5.508,7.038,7.344c-1.225,1.224-2.143,2.142-3.366,3.366c-3.061-2.448-6.12-4.284-8.262-7.956
			c-0.918-1.53-3.366-0.306-2.448,1.53c2.142,3.366,5.202,7.038,8.874,8.568c-0.918,1.224-2.143,2.448-3.061,3.979l0,0
			c0-0.306,0-0.306-0.306-0.612c-4.59-4.284-9.486-7.956-13.464-12.852c-0.612-0.612-1.53-0.306-1.836,0.306
			c-0.612-0.918-1.53-1.836-2.448-2.142l0,0c-0.306-0.612-0.612-1.224-0.918-2.142s-1.224-0.612-1.836,0
			c-2.754-1.836-5.202-3.978-7.956-6.12C288.481,101.278,290.011,101.584,291.541,101.584z M271.039,100.054
			c-0.918-0.918-2.142-1.836-3.06-2.754c0.918,0.306,1.836,0.612,2.754,0.612c4.896,5.508,10.404,11.628,16.83,15.3
			c1.224,0.612,2.754-0.918,1.836-2.142c-3.978-3.978-8.262-7.65-12.546-11.322c1.224,0.306,2.754,0.612,3.978,0.918
			c3.366,3.672,7.344,6.732,11.628,9.18c-0.918,0.612-1.529,1.53-2.142,3.06c-0.918,2.754-1.836,4.896-2.754,7.038
			c-0.918-0.918-2.142-2.142-3.06-3.366c0-0.306,0-0.612-0.307-0.918c-5.508-5.508-11.934-9.792-17.748-14.994
			c0.918,0.612,1.836,1.224,2.754,1.836C270.733,103.727,272.264,101.584,271.039,100.054z M224.222,105.562
			c2.142,0.918,4.284,0.306,5.813-0.918c3.672,2.448,7.65,4.896,11.628,6.426c0.918,0.306,1.53-0.918,0.918-1.53
			c-3.06-3.06-6.731-5.202-10.71-7.344c0.307-0.918,0.307-1.836,0.307-2.754l0,0c4.59,3.672,9.485,7.344,14.688,9.792
			c1.225,0.612,2.754-0.918,1.53-1.836c-3.979-3.366-8.568-6.426-13.158-9.18c1.53-0.612,3.061-1.224,4.59-1.836
			c4.284,3.672,8.568,7.038,13.158,9.792c1.53,0.918,3.366-0.918,2.143-2.142c-0.612-1.224-1.53-1.836-2.448-2.448
			c-0.307-0.306-0.612-0.306-0.918,0c-2.754-1.836-5.508-3.978-8.263-5.814c1.225-0.306,2.448-0.306,3.366-0.306
			c2.143,1.836,4.284,3.978,6.732,5.508c1.529,1.224,4.284,3.672,6.426,2.754c0.918-0.306,1.224-0.918,1.224-1.836
			c-0.306-0.918-0.611-1.224-1.224-1.53c-0.306,0-0.612,0-0.612,0c-1.529-0.612-4.284-2.754-5.202-3.366
			c-0.918-0.612-1.836-1.224-2.447-2.142c2.142,0,3.978,0.306,6.12,0.612l0,0c2.142,1.53,4.283,3.366,6.426,4.896
			c-1.225-0.306-2.448,1.224-1.53,2.142c5.508,5.508,11.628,11.016,18.36,14.994v0.306c1.224,1.836,2.754,3.672,4.284,5.508
			c-0.307,0.306-0.612,0.918-0.612,1.224c-1.836-1.836-3.366-3.672-4.896-5.814c-0.306-0.612-0.918-0.612-1.529-0.306
			c0,0,0,0,0-0.306c-2.754-2.448-6.12-4.284-9.486-6.426c-3.672-2.448-7.344-5.508-10.71-8.262c-1.53-1.224-3.366,0.612-2.142,2.142
			c5.813,5.508,13.157,12.24,21.113,14.688c0.307,0,0.612,0,0.918-0.306c1.225,2.448,3.061,4.896,4.896,7.038
			c-1.225,1.53-2.143,2.754-3.366,3.672c-2.448-4.896-5.508-8.874-9.792-12.24c0.306-0.612,0.306-1.224-0.306-1.53
			c-5.202-4.284-11.935-7.344-17.748-10.404c-1.225-0.612-2.143,0.918-0.918,1.836c1.529,1.224,3.365,2.142,4.896,3.366
			c-2.142-0.306-3.978-0.612-6.426-0.918c-5.202,0-9.792,1.224-14.382,3.366c-3.979-2.448-8.262-4.896-12.24-7.65
			C223.915,106.174,223.915,105.869,224.222,105.562z M222.386,108.316c3.365,2.754,7.038,5.202,10.71,7.038
			c0,0-0.307,0-0.307,0.306c-1.529,0.918-3.06,1.836-4.59,2.448l0,0c-2.754-2.142-5.508-3.978-8.262-5.814
			C220.55,110.764,221.468,109.541,222.386,108.316z M219.02,113.824c2.448,1.836,4.896,3.672,7.649,5.202
			c-1.224,0.918-2.447,1.53-3.672,2.448c0-0.306,0-0.306-0.306-0.612c-1.53-1.53-3.06-3.06-4.59-4.284
			C218.102,115.354,218.714,114.742,219.02,113.824z M216.571,99.136c-6.426,8.262-9.485,19.278-7.649,30.294
			c-3.979,1.836-8.263,3.366-13.158,3.978c-0.307-0.612-0.612-0.918-0.918-1.53c-3.061-2.754-6.12-5.508-9.181-8.262
			c0.918-2.448,0-5.508-3.06-6.12c1.224-14.076,3.06-31.212-1.224-44.37C193.928,80.47,205.556,89.039,216.571,99.136z
			 M143.743,71.291c0.612-4.896,2.143-10.098,1.53-15.3c0.918,0.306,1.836,0.612,2.448,0.918c9.485,3.366,18.359,7.65,26.928,12.24
			l-0.306,0.306c-2.143,8.262-0.307,16.83,0,25.092c0.306,6.426,0.306,12.852,0.306,19.278c-10.404-9.18-21.114-17.748-32.13-26.316
			C142.825,82,143.132,76.492,143.743,71.291z M137.93,53.542c-2.754,4.896-2.754,10.404-2.754,16.218
			c0,4.284,0.306,8.568,0.918,12.852C118.346,69.148,99.68,56.908,80.401,45.586C95.396,40.69,122.018,48.34,137.93,53.542z
			 M69.997,54.766c0.918-2.754,2.448-4.59,4.591-6.426c16.523,11.628,32.436,23.562,48.042,36.108
			c-15.912-1.836-32.131-2.142-48.042-1.53C70.304,71.596,67.855,60.886,69.997,54.766z M89.581,115.966
			c-3.978-7.65-8.567-16.83-12.546-26.316c16.524,0.612,32.742,1.836,48.96,3.366c2.448,0.306,3.672-1.224,3.979-2.754
			c10.098,8.262,20.195,16.524,30.294,25.092C136.705,114.13,112.531,115.661,89.581,115.966L89.581,115.966z M93.254,123.004
			c26.621,2.448,54.773,6.12,81.701,4.896c3.366,2.754,6.427,5.508,9.792,8.568c-1.224,1.53-1.836,3.366-1.224,5.508
			c0.612,3.366,0.612,6.426,0,9.792c-11.628-2.754-24.786-1.224-36.72-0.918c-11.935,0.306-24.174,0.612-36.108,0.918
			c-4.896-7.344-9.486-14.688-13.77-22.338C95.396,127.289,94.478,125.453,93.254,123.004z M101.516,164.621
			c9.792,12.852,20.196,24.174,31.212,33.354c-0.612,3.978-1.224,7.956-1.836,11.934c-1.225-0.306-2.448-0.612-3.672-1.224
			c-5.508-7.038-13.771-11.934-20.502-17.442c-7.038-6.12-13.771-12.24-20.196-18.972
			C91.417,169.822,96.313,167.068,101.516,164.621z M79.178,175.942C79.178,175.942,79.178,176.249,79.178,175.942
			c7.038,8.262,14.382,15.606,22.031,22.95c2.448,2.142,4.896,4.59,7.345,7.038c-9.792-0.612-19.891-0.306-29.683,0.306
			c-7.649-5.508-16.218-10.404-24.479-14.994C62.348,185.734,70.609,180.838,79.178,175.942z M48.577,194.915
			c4.896,3.978,10.099,7.956,15.606,11.934c-12.853,0.918-26.01,2.142-38.25,6.12C33.277,206.236,40.928,200.422,48.577,194.915z
			 M62.653,252.442c-15.912-8.568-30.6-18.972-44.37-31.518c20.196,0.918,40.698-3.06,60.895-3.366c0.611,0,1.529,0,2.142,0
			c0.918,0.306,1.53,0.918,2.448,1.224c1.836,0.918,3.672,0,4.59-1.224c0.918,0,1.53,0,2.448,0
			c-3.672,4.284-7.344,9.486-10.404,13.158c-5.813,7.038-12.852,13.158-17.748,20.808C62.653,252.136,62.653,252.442,62.653,252.442
			z M66.632,254.584c8.262-4.59,14.688-11.628,21.113-18.054c4.59-4.896,11.935-11.016,14.994-17.748
			c8.874,0.612,17.748,0.918,26.316,0c-1.225,4.896-3.366,9.18-6.12,12.852c-0.918-0.306-2.143-0.612-3.061,0
			c-2.142,1.224-3.978,3.366-5.813,5.202c-0.306,0-0.306,0.306-0.306,0.612c-0.612,0.612-0.918,1.224-1.53,1.836
			c-0.918,0.612-1.53,1.53-1.836,2.142c-0.918,1.224-1.836,2.754-3.061,3.978c-4.283,5.508-8.567,11.016-12.546,16.83
			c-1.224,1.53-0.611,3.366,0.307,4.59C85.298,263.152,75.812,259.174,66.632,254.584z M99.373,268.048
			c0.612-0.306,1.225-0.306,1.836-0.918c4.591-5.202,9.181-10.71,13.465-15.912c1.224-1.53,2.447-2.754,3.365-4.284
			c7.038,4.896,14.076,9.792,21.114,14.382c0.612,3.672,1.224,7.038,1.836,10.71c0,1.836,0,3.672,0,5.508
			C126.913,275.698,112.838,272.333,99.373,268.048z M144.661,328.024c3.366,7.65,8.568,14.383,15.301,19.584
			c9.792,7.65,21.726,11.016,33.048,10.098c-0.612,0.613-1.225,1.531-1.836,2.143c-0.918-1.529-2.448-2.449-4.591-1.836
			c-10.098,2.447-18.972,10.098-28.151,14.994c-10.71,5.508-22.032,10.404-33.354,14.688
			C129.667,367.499,136.705,347.915,144.661,328.024z M119.875,420.13c0.918-8.568,2.143-17.135,3.673-25.398
			c0.611,0,0.918,0,1.529,0c11.935-2.447,23.256-6.119,34.578-11.016c5.814-2.447,12.546-5.201,18.666-8.262
			c-10.404,13.465-20.196,27.846-28.151,43.146c-0.612-0.307-1.53-0.611-2.448-0.307c-10.71,3.061-21.114,11.322-29.376,19.584
			C118.957,430.534,119.569,424.415,119.875,420.13z M118.039,447.364c5.202-4.59,10.71-8.873,16.524-12.852
			c3.672-2.449,7.65-4.59,11.322-6.732c-10.71,22.338-18.36,45.594-21.42,69.463C118.039,486.839,117.121,465.724,118.039,447.364z
			 M129.056,502.138c6.12-17.135,12.852-33.354,19.89-48.959c1.225,4.896,3.366,9.486,5.202,14.076
			c2.448,6.732,3.978,14.688,9.18,19.584c0.612,0.611,1.225,0.918,1.836,0.918C150.476,497.854,135.787,505.505,129.056,502.138z
			 M169.754,484.39v-0.305c0-7.039-4.591-14.076-7.65-20.197c-2.754-6.119-5.508-13.158-9.792-18.359
			c7.65-16.219,16.523-31.824,26.315-46.818c2.143,11.016,5.509,22.033,8.874,32.742c3.061,9.793,4.896,20.502,10.099,29.377
			c0.306,0.305,0.612,0.611,0.612,0.918C191.479,467.56,181.075,476.435,169.754,484.39z M206.167,454.403
			c-2.142-10.1-7.037-20.197-10.71-29.684c-3.672-9.486-7.344-19.277-11.934-28.457c-0.612-0.918-1.224-1.225-2.142-1.225
			c5.813-8.568,12.239-17.135,19.277-25.398c4.896,19.891,12.853,40.699,24.48,56.916c0.918,1.225,1.836,1.836,2.754,1.836
			C221.468,437.573,214.123,446.14,206.167,454.403z M232.483,421.354c-8.262-19.584-18.054-38.557-26.01-58.141
			c2.448-2.754,4.896-5.508,7.344-8.262c-0.306,17.748,11.934,33.66,28.152,42.229c1.224,0.611,2.754,1.225,3.978,1.836
			C241.97,406.667,237.38,414.011,232.483,421.354z M327.343,383.411c-6.731,0-13.77,0.918-20.502,2.447
			c-4.283-0.611-8.262-1.529-12.239-3.979c-0.918-0.611-2.143,0.918-0.918,1.531c2.142,1.529,4.59,2.754,7.344,3.672
			c-5.508,1.223-11.017,2.141-16.83,2.447c0-0.307-0.306-0.611-0.612-0.918c-4.283-1.225-8.262-2.143-12.239-3.979
			c-1.225-0.611-2.143,1.225-0.918,1.836c2.754,1.225,5.508,2.143,8.262,3.061c-19.89-0.611-37.026-7.344-46.512-22.031
			c2.447,1.836,4.896,3.365,7.344,4.895c-0.612,0.307-0.918,1.531,0,1.836c8.874,3.979,17.442,8.568,26.622,11.936
			c1.224,0.305,1.836-1.531,0.918-2.143c-7.956-4.283-16.524-7.65-24.786-11.322c0.306-0.307,0.612-1.225,0-1.529
			c-0.306-0.307-0.918-0.613-1.53-0.918c0.307-0.307,0.612-1.225,0-1.531c-4.283-4.59-9.18-8.566-13.77-12.545
			c-0.612-1.531-0.918-2.754-1.225-4.285c6.12,5.51,12.853,10.1,19.891,13.771c1.224,0.611,1.836-0.918,0.918-1.531
			c-7.344-5.201-14.382-10.404-21.42-15.912c-0.307-0.918-0.307-2.141-0.612-3.059c0-0.613-0.306-1.225-0.612-1.531l0.307-0.305
			c7.956,5.812,15.605,11.32,24.174,15.912c0.612,0.305,1.224,0,1.53-0.307c2.142,1.225,4.283,2.143,6.426,3.061
			c6.426,3.672,12.852,7.344,19.89,10.098c1.53,0.611,2.448-1.836,0.918-2.449c-1.836-0.918-3.978-1.836-5.813-3.059
			c3.366,0.611,6.731,0.611,10.098,0.305c4.59,2.754,9.486,5.508,14.382,7.039c-0.612,0.305-0.612,1.223,0,1.529
			c5.508,3.061,12.24,6.426,18.666,7.344c0.918,0,1.224-1.223,0.306-1.529c-4.896-2.447-10.403-3.979-15.3-6.121
			c1.225,0,2.143-1.836,0.918-2.447c-4.59-2.143-9.18-4.283-13.464-6.426c1.53-0.307,3.061-0.918,4.59-1.225
			c3.366,1.836,7.038,3.367,10.71,4.59c1.53,0.613,2.448-1.836,1.225-2.754c-2.143-1.529-4.896-2.447-7.345-3.672
			c1.225-0.611,2.448-0.918,3.672-1.529l0.307-0.307c2.142,0.918,3.978,2.143,6.12,3.061c0.918,0.611,1.836-0.307,1.836-1.225
			c4.284,2.143,8.262,4.896,12.546,6.732c0.918,0.307,1.53-0.918,0.918-1.529c-3.979-3.979-10.098-6.121-15.3-8.262
			c-0.612-0.307-0.918,0-1.225,0.611c-0.611-0.611-1.224-0.918-1.836-1.529c1.836-1.225,3.366-2.449,4.896-3.979
			c6.426,3.672,12.852,7.344,18.972,11.016c0.612,0.307,1.224,0.307,1.836-0.307c-0.306,0.307,0,0.918,0.307,1.225
			c7.344,3.672,15.3,7.65,23.256,9.486c0.611,0,0.918,0,1.224-0.307c0,0.307,0,0.307,0.306,0.611
			c1.225,0.918,3.061,2.449,4.896,3.674c-1.836,2.447-3.672,4.895-4.896,7.648c-2.754-0.611-5.508-1.529-7.956-3.059
			c-0.918-0.613-1.836,0.918-0.918,1.529c2.448,1.529,5.202,3.061,7.956,3.672c-0.611,1.225-0.918,2.447-1.224,3.672
			c-3.366-3.672-7.65-6.119-12.853-7.65c0-0.305,0-0.918-0.611-1.223c-6.12-2.143-12.24-4.59-18.055-7.65l0,0
			c-4.896-2.754-10.403-4.896-15.3-7.957c-1.224-0.611-2.142,0.918-0.918,1.836c4.59,3.061,9.486,6.426,14.994,7.957
			c3.366,2.143,7.038,3.979,11.017,5.508C328.567,383.716,327.955,383.411,327.343,383.411z M332.239,399.017
			c8.262,0.918,14.994,3.672,17.748,10.404c0.612,1.223,1.836,2.141,3.366,2.447c-5.202,3.365-10.404,6.732-15.606,10.098
			C335.299,414.622,333.463,406.972,332.239,399.017z M378.445,495.712c-18.054-19.584-30.906-42.84-39.168-67.932
			c10.098-5.508,19.89-11.016,29.682-17.441c5.814-3.979,12.24-7.957,17.748-12.547c0.612,9.18,1.53,18.361,2.448,27.234
			c-0.918-0.307-2.142,0-3.366,0.918c-5.508,4.896-9.792,11.016-14.688,16.219c-5.202,5.201-10.404,10.098-16.219,14.688
			c-3.06,2.447,0.918,7.955,4.284,5.508c11.017-7.955,23.868-17.748,31.212-29.682c1.836,12.852,3.979,25.703,6.732,38.25
			c-3.366,4.283-5.814,8.873-8.874,13.158C384.871,488.062,381.505,491.733,378.445,495.712z M397.111,513.46
			c-5.202-4.283-10.098-8.568-14.688-13.463c6.427-4.59,12.853-11.322,17.137-18.666c3.365,13.463,7.649,26.621,12.546,39.473
			C407.516,520.499,402.619,518.05,397.111,513.46z M435.667,506.728c-5.813,7.346-10.71,11.629-16.218,13.465
			c-5.814-26.928-11.322-53.855-15.912-80.783c12.546,16.523,27.234,32.74,44.064,44.369c0,0,0,0,0.306,0
			C444.541,492.04,440.869,500.302,435.667,506.728z M453.415,468.478c-0.612,1.531-0.918,3.061-1.53,4.285
			c-8.262-7.039-17.441-13.158-25.397-20.197c-8.262-7.037-16.218-14.688-24.174-22.338c-1.836-11.627-3.366-23.256-4.59-35.189
			c21.113,15.912,41.004,33.66,61.812,49.879C458.005,452.872,455.863,460.829,453.415,468.478z M461.065,434.817
			c-18.973-16.828-40.393-31.518-61.506-45.594c-0.918-0.611-1.837-0.611-2.448-0.305c-0.307-3.672-0.612-7.65-0.918-11.322
			c18.359,14.076,41.31,23.562,65.178,27.846C462.595,415.233,462.289,425.026,461.065,434.817z M436.892,385.858
			c-0.918-6.732-2.448-13.77-3.979-20.502c-1.224-4.59-1.836-9.486-3.366-13.77c5.202-4.59,9.792-10.098,13.158-17.137
			c2.448-5.201,3.672-10.709,3.672-15.912c4.284,2.449,8.874,4.59,13.464,6.732c-0.918,9.791,3.061,19.584,5.814,29.07
			c3.672,12.545,7.344,25.398,11.628,37.637C463.514,391.673,450.355,389.53,436.892,385.858z M484.321,391.673L484.321,391.673
			c-2.448-13.77-5.814-26.928-9.486-40.393c-1.836-7.344-3.06-15.605-6.426-22.338c11.628,4.896,23.562,9.18,34.578,14.383
			c3.06,14.994,8.874,29.986,14.076,44.369C506.047,390.142,495.031,391.366,484.321,391.673z M526.855,385.552
			c-2.754-11.016-5.508-22.949-9.181-34.271c12.853,7.65,24.786,16.523,37.026,25.398
			C545.215,380.351,536.035,383.104,526.855,385.552z M508.801,330.472c-0.611-0.918-1.836-1.529-3.06-1.529
			c-1.224-0.611-2.448-0.918-3.672-1.529c4.284-2.449,8.874-4.896,13.158-7.65c4.284-2.449,8.567-4.59,12.546-7.039
			c14.688,15.301,26.315,32.438,31.824,53.244C546.133,351.892,528.079,339.958,508.801,330.472z"/>
		<path d="M333.463,356.481c-0.918-1.223-2.142-2.447-3.06-3.672c-0.612-0.611-1.836,0.307-1.224,0.918
			c0.306,0.307,0.611,0.918,0.611,1.225c-3.366-1.225-7.038-2.754-10.404-4.283c-1.224-0.613-2.447,1.223-1.224,1.836
			c4.59,2.141,9.18,4.283,13.771,5.814C333.463,358.931,334.075,357.399,333.463,356.481z"/>
		<path d="M346.927,379.739c-1.224-2.143-2.447-3.367-4.59-4.285c-1.224-0.611-2.142,0.918-0.918,1.836l0,0
			c-5.508-2.143-10.71-4.283-16.218-7.037c-1.224-0.613-2.448,1.223-1.224,2.141c6.731,3.672,14.075,7.039,21.113,9.486
			C346.621,382.187,347.539,380.657,346.927,379.739z"/>
		<path d="M356.413,364.745c-2.142-1.531-4.896-2.143-7.344-3.367c-2.754-1.223-5.508-2.447-7.956-3.979
			c-2.143-1.223-3.979,2.143-1.836,3.367c4.59,2.754,11.016,7.037,16.218,6.732C357.331,367.499,357.637,365.663,356.413,364.745z"
			/>
		<path d="M407.516,345.161c-0.612-1.531-1.225-2.449-2.448-3.367c-0.918-0.611-1.53-0.305-2.143,0.307
			c-6.731-3.061-13.464-6.121-19.89-10.098c-2.142-1.225-3.672,1.836-1.836,3.059c7.344,4.896,15.3,9.793,23.868,12.24
			C406.291,347.915,408.127,346.69,407.516,345.161z"/>
	</g>
</g>
</svg>