<?xml version="1.0" encoding="iso-8859-1"?>
<!-- Uploaded to: SVG Repo, www.svgrepo.com, Generator: SVG Repo Mixer Tools -->
<svg fill="#000000" height="800px" width="800px" version="1.1" id="Layer_1" xmlns="http://www.w3.org/2000/svg" xmlns:xlink="http://www.w3.org/1999/xlink" 
	 viewBox="0 0 512.001 512.001" xml:space="preserve">
<g>
	<g>
		<path d="M173.39,356.124c-2.199-8.603-8.909-15.314-17.514-17.513l-27.437-7.013l-55.04,92.838
			c-2.409,4.064-1.758,9.243,1.583,12.583c3.34,3.341,8.52,3.992,12.583,1.583l92.838-55.04L173.39,356.124z"/>
	</g>
</g>
<g>
	<g>
		<path d="M87.565,73.398c-4.064-2.409-9.243-1.758-12.583,1.583c-3.341,3.341-3.992,8.52-1.583,12.583l55.04,92.839l27.438-7.013
			c8.604-2.199,15.315-8.91,17.514-17.514l7.013-27.437L87.565,73.398z"/>
	</g>
</g>
<g>
	<g>
		<path d="M437.02,74.981c-3.34-3.341-8.52-3.992-12.583-1.583l-92.839,55.04l7.013,27.438c2.2,8.604,8.91,15.314,17.515,17.513
			l27.437,7.013l55.04-92.838C441.011,83.501,440.361,78.321,437.02,74.981z"/>
	</g>
</g>
<g>
	<g>
		<path d="M438.603,424.436l-55.04-92.838l-27.438,7.013c-8.604,2.199-15.315,8.91-17.514,17.514l-7.013,27.437l92.839,55.04
			c4.063,2.409,9.243,1.758,12.583-1.583C440.36,433.679,441.011,428.5,438.603,424.436z"/>
	</g>
</g>
<g>
	<g>
		<path d="M511.881,254.416c-0.633-4.185-3.926-7.479-8.026-8.526l-156.065-39.89c-20.52-5.245-36.544-21.268-41.787-41.787
			L266.112,8.146c-1.048-4.101-4.342-7.393-8.526-8.026C257.051,0.04,256.523,0,256.001,0c-4.723,0-8.847,3.202-10.017,7.779
			l-39.984,156.432c-5.245,20.519-21.268,36.544-41.787,41.787L7.779,245.983c-5.082,1.299-8.469,6.24-7.659,11.602
			c0.633,4.185,3.926,7.479,8.026,8.526l156.065,39.89c20.52,5.245,36.544,21.268,41.787,41.787l39.984,156.432
			c1.17,4.577,5.293,7.779,10.017,7.779c0.522,0,1.051-0.039,1.584-0.12c4.185-0.633,7.479-3.926,8.526-8.026l39.89-156.065
			c5.245-20.52,21.268-36.544,41.787-41.787l156.432-39.984C509.305,264.718,512.692,259.777,511.881,254.416z"/>
	</g>
</g>
</svg>