<?xml version="1.0" encoding="iso-8859-1"?>
<!-- Uploaded to: SVG Repo, www.svgrepo.com, Generator: SVG Repo Mixer Tools -->
<svg fill="#000000" height="800px" width="800px" version="1.1" id="Capa_1" xmlns="http://www.w3.org/2000/svg" xmlns:xlink="http://www.w3.org/1999/xlink" 
	 viewBox="0 0 463.002 463.002" xml:space="preserve">
<g>
	<path d="M231.625,47c4.94,0,9.747,0.54,14.286,1.606c0.577,0.135,1.153,0.2,1.721,0.2c3.403,0,6.484-2.332,7.295-5.788
		c0.947-4.032-1.555-8.068-5.587-9.016C243.677,32.674,237.718,32,231.625,32c-4.142,0-7.5,3.357-7.5,7.5S227.483,47,231.625,47z"/>
	<path d="M288.156,107.711c0,10.813-2.037,22.33-5.891,33.305c-1.373,3.908,0.683,8.189,4.591,9.562
		c0.822,0.289,1.66,0.426,2.485,0.426c3.095,0,5.993-1.931,7.076-5.017c4.409-12.554,6.739-25.789,6.739-38.275
		c0-23.36-8.301-43.862-23.375-57.73c-3.05-2.804-7.793-2.607-10.598,0.441c-2.804,3.049-2.607,7.793,0.441,10.598
		C281.574,72.014,288.156,88.596,288.156,107.711z"/>
	<path d="M101.252,96.866c-5.738,0.938-11.502,2.596-17.132,4.927c-3.827,1.585-5.645,5.972-4.06,9.799
		c1.196,2.889,3.989,4.633,6.932,4.633c0.956,0,1.928-0.184,2.866-0.572c4.566-1.891,9.214-3.23,13.814-3.983
		c4.088-0.668,6.86-4.523,6.192-8.611C109.195,98.968,105.336,96.195,101.252,96.866z"/>
	<path d="M447.398,127.745c-10.231-25.008-30.215-44.724-56.269-55.515c-20.662-8.56-42.35-10.475-63.084-5.664
		c-5.133-13.969-12.954-26.485-23.191-36.811C285.832,10.567,259.825,0,231.625,0s-54.208,10.567-73.23,29.756
		c-10.249,10.339-18.079,22.874-23.211,36.865c-20.799-4.881-42.56-2.987-63.311,5.609c-26.054,10.791-46.037,30.507-56.269,55.515
		c-10.51,25.687-9.857,55.382,1.838,83.615c11.924,28.787,34.297,54.605,61.383,70.835c18.407,11.028,37.145,16.632,54.831,16.632
		c7.79,0,15.376-1.09,22.639-3.28l68.407,162.835c0.062,0.15,0.135,0.294,0.207,0.439c0.033,0.066,0.061,0.134,0.096,0.199
		c0.054,0.102,0.116,0.2,0.175,0.299c0.036,0.06,0.07,0.12,0.107,0.179c0.032,0.051,0.062,0.103,0.095,0.153
		c0.063,0.094,0.132,0.183,0.199,0.274c0.078,0.107,0.154,0.215,0.238,0.318c0.014,0.017,0.028,0.034,0.042,0.051
		c0.042,0.051,0.089,0.096,0.132,0.145c0.103,0.118,0.205,0.236,0.316,0.347c0.05,0.051,0.105,0.096,0.157,0.145
		c0.031,0.029,0.062,0.057,0.093,0.086c0.053,0.049,0.104,0.099,0.158,0.146c0.042,0.037,0.083,0.074,0.126,0.11
		c0.073,0.06,0.151,0.114,0.226,0.171c0.115,0.088,0.228,0.179,0.349,0.261c0.024,0.016,0.049,0.03,0.073,0.046
		c0.043,0.029,0.089,0.053,0.132,0.08c0.241,0.153,0.491,0.29,0.75,0.415c0.057,0.027,0.112,0.056,0.17,0.082
		c0.29,0.131,0.588,0.249,0.897,0.343c0.01,0.003,0.021,0.006,0.032,0.009c0.022,0.007,0.046,0.011,0.068,0.017
		c0.021,0.006,0.042,0.01,0.063,0.016c0.179,0.05,0.358,0.1,0.542,0.137c0.094,0.019,0.188,0.029,0.282,0.044
		c0.076,0.013,0.152,0.024,0.229,0.034c0.036,0.005,0.073,0.012,0.109,0.016c0.034,0.004,0.066,0.011,0.1,0.015
		c0.254,0.026,0.507,0.041,0.76,0.041c0.001,0,0.002,0,0.003,0c0.001,0,0.002,0,0.003,0c0.253,0,0.507-0.014,0.761-0.041
		c0.022-0.002,0.043-0.007,0.065-0.01c0.048-0.005,0.097-0.015,0.145-0.021c0.076-0.01,0.151-0.021,0.227-0.034
		c0.095-0.016,0.191-0.026,0.286-0.045c0.172-0.035,0.339-0.082,0.507-0.128c0.035-0.01,0.07-0.016,0.105-0.027
		c0.019-0.005,0.039-0.009,0.058-0.014c0.013-0.004,0.026-0.007,0.039-0.011c0.307-0.094,0.604-0.212,0.893-0.343
		c0.056-0.025,0.111-0.053,0.166-0.08c0.113-0.054,0.227-0.105,0.337-0.165c0.05-0.027,0.095-0.059,0.144-0.087
		c0.095-0.054,0.188-0.112,0.28-0.17c0.04-0.025,0.082-0.048,0.121-0.074c0.023-0.016,0.048-0.029,0.071-0.045
		c0.137-0.093,0.265-0.194,0.395-0.295c0.06-0.047,0.123-0.089,0.181-0.138c0.047-0.039,0.091-0.079,0.137-0.119
		c0.049-0.043,0.095-0.089,0.143-0.133c0.038-0.035,0.076-0.07,0.114-0.105c0.046-0.044,0.096-0.085,0.141-0.131
		c0.115-0.115,0.221-0.238,0.327-0.36c0.04-0.046,0.083-0.087,0.122-0.134c0.014-0.016,0.027-0.033,0.04-0.049
		c0.088-0.107,0.167-0.22,0.249-0.333c0.063-0.087,0.129-0.171,0.189-0.26c0.035-0.053,0.067-0.107,0.1-0.161
		c0.036-0.057,0.07-0.117,0.104-0.176c0.058-0.099,0.119-0.195,0.173-0.297c0.038-0.071,0.069-0.145,0.105-0.217
		c0.067-0.137,0.136-0.273,0.195-0.414l68.169-162.836c7.26,2.188,14.842,3.277,22.63,3.277
		c17.684-0.001,36.426-5.604,54.831-16.632c27.086-16.229,49.459-42.048,61.383-70.835
		C457.255,183.127,457.908,153.432,447.398,127.745z M231.625,15c51.298,0,88.531,38.99,88.531,92.711
		c0,28.009-9.714,57.166-26.65,79.995C276.142,211.11,254.165,224,231.625,224s-44.517-12.89-61.88-36.294
		c-16.937-22.829-26.65-51.986-26.65-79.995C143.094,53.99,180.326,15,231.625,15z M224.125,238.621v179.662l-53.977-128.488
		c19.01-10.252,33.664-28.826,42.068-53.351C216.14,237.484,220.114,238.217,224.125,238.621z M239.125,238.618
		c3.975-0.396,7.875-1.099,11.688-2.093c8.411,24.484,23.069,43.036,42.05,53.273l-53.738,128.365V238.618z M86.534,269.328
		c-24.383-14.61-44.516-37.831-55.234-63.708c-10.171-24.555-10.815-50.194-1.813-72.195c8.705-21.276,25.796-38.088,48.126-47.337
		c17.544-7.267,35.867-8.969,53.358-5.045c-1.895,8.537-2.877,17.471-2.877,26.668c0,31.158,10.79,63.573,29.604,88.932
		c11.772,15.868,25.568,27.585,40.436,34.626c-7.946,23.406-22.192,40.31-40.54,47.911
		C136.768,287.804,111.532,284.307,86.534,269.328z M431.702,205.62c-10.718,25.877-30.851,49.098-55.234,63.708
		c-24.999,14.979-50.234,18.476-71.06,9.852c-18.299-7.581-32.54-24.446-40.498-47.783c41.8-19.636,70.245-74.014,70.245-123.686
		c0-9.216-0.985-18.167-2.888-26.72c17.424-3.854,35.669-2.133,53.122,5.097c22.33,9.25,39.421,26.061,48.126,47.337
		C442.517,155.426,441.873,181.065,431.702,205.62z"/>
	<path d="M406.534,133.187c-3.758,1.743-5.391,6.202-3.648,9.96c6.833,14.729,6.567,32.567-0.748,50.229
		c-4.139,9.992-10.428,19.852-18.188,28.515c-2.764,3.085-2.503,7.826,0.582,10.591c1.432,1.282,3.22,1.913,5.002,1.913
		c2.058,0,4.107-0.842,5.589-2.496c8.876-9.908,16.094-21.244,20.873-32.782c8.939-21.582,9.116-43.701,0.497-62.281
		C414.75,133.076,410.291,131.442,406.534,133.187z"/>
	<path d="M390.099,124.015c2.332,0,4.63-1.085,6.096-3.122c2.418-3.363,1.652-8.05-1.711-10.468
		c-4.721-3.395-9.969-6.299-15.599-8.631c-3.828-1.585-8.214,0.231-9.8,4.059c-1.585,3.826,0.232,8.214,4.059,9.799
		c4.565,1.892,8.799,4.23,12.583,6.951C387.052,123.556,388.582,124.015,390.099,124.015z"/>
</g>
</svg>