<?xml version="1.0" encoding="iso-8859-1"?>
<!-- Uploaded to: SVG Repo, www.svgrepo.com, Generator: SVG Repo Mixer Tools -->
<svg fill="#000000" height="800px" width="800px" version="1.1" id="Layer_1" xmlns="http://www.w3.org/2000/svg" xmlns:xlink="http://www.w3.org/1999/xlink" 
	 viewBox="0 0 512.001 512.001" xml:space="preserve">
<g style="opacity:0.1;">
	<g>
		<path d="M277.161,97.754l0.483,0.483l0.617-0.618C277.894,97.661,277.526,97.701,277.161,97.754z"/>
	</g>
</g>
<g>
	<g>
		<path d="M311.879,101.847c-7.938-7.928-18.488-12.293-29.706-12.293c-9.626,0-18.758,3.214-26.172,9.135
			c-7.415-5.92-16.548-9.135-26.174-9.135c-11.221,0-21.771,4.366-29.706,12.292c-7.939,7.927-12.311,18.47-12.311,29.688
			c0,11.216,4.372,21.759,12.307,29.682l45.668,45.66c2.732,2.725,6.36,4.227,10.215,4.227s7.484-1.5,10.221-4.233l45.66-45.652
			c7.938-7.93,12.309-18.473,12.309-29.685C324.19,120.32,319.818,109.777,311.879,101.847z M300.803,150.133l-44.802,44.794
			l-44.805-44.797c-4.973-4.966-7.711-11.57-7.711-18.596c0-7.027,2.739-13.631,7.712-18.597c4.977-4.972,11.593-7.709,18.632-7.709
			c7.035,0,13.652,2.738,18.628,7.707c4.334,5.053,10.755,5.003,15.088,0.002c4.977-4.972,11.593-7.709,18.631-7.709
			c7.036,0,13.653,2.738,18.632,7.709c4.972,4.967,7.711,11.572,7.711,18.597C308.518,138.558,305.779,145.161,300.803,150.133z"/>
	</g>
</g>
<g>
	<g>
		<g>
			<path d="M474.84,223.325c2.565,7.038,5.118,14.047-0.011-0.031c-2.047-5.617-2.868-7.869-2.955-8.109
				c0.117,0.321,1.527,4.192,2.943,8.079c-10.276-28.177-30.917-50.674-58.126-63.347c-7.272-3.389-14.728-5.925-22.251-7.658
				c0.42-4.385,0.643-8.826,0.643-13.319c0-22.764-5.635-45.349-16.297-65.311c-2.04-3.818-6.789-5.26-10.605-3.22
				c-3.818,2.039-5.26,6.787-3.221,10.605c9.452,17.698,14.449,37.729,14.449,57.927c0,67.969-55.361,123.265-123.409,123.265
				S132.592,206.909,132.592,138.94c0-67.97,55.361-123.267,123.409-123.267c35.898,0,69.957,15.579,93.441,42.744
				c2.831,3.275,7.78,3.635,11.054,0.804c3.274-2.831,3.634-7.779,0.804-11.054C334.835,17.556,296.455,0,256.001,0
				c-76.69,0-139.082,62.328-139.082,138.94c0,4.487,0.22,8.922,0.638,13.302c-7.599,1.756-15.032,4.315-22.247,7.677
				c-27.219,12.677-47.866,35.185-58.138,63.376c-10.272,28.193-8.94,58.697,3.754,85.889
				c18.395,39.406,58.418,64.869,101.963,64.87c0.001,0,0.002,0,0.003,0c8.657,0,17.176-0.992,25.495-2.941
				c4.101,7.145,11.803,11.67,20.136,11.67c0.712,0,1.417-0.04,2.118-0.103l11.673,25.005c1.33,2.849,4.157,4.523,7.106,4.523
				c1.111,0,2.238-0.237,3.309-0.738c3.923-1.831,5.617-6.494,3.787-10.417l-11.675-25.011c2.399-2.374,4.284-5.252,5.473-8.517
				c1.896-5.204,1.864-10.785-0.034-15.923c17.135-12.779,30.252-30.199,37.883-50.659v167.905l-21.401-45.846
				c-1.831-3.922-6.495-5.617-10.416-3.786c-3.922,1.831-5.617,6.494-3.787,10.417c0,0,36.369,77.892,36.381,77.918
				c1.265,2.63,3.946,4.449,7.058,4.449c3.105,0,5.78-1.81,7.049-4.429c0.015-0.027,45.577-97.621,58.308-124.89
				c0.701,0.064,1.406,0.103,2.118,0.103c8.336,0,16.04-4.529,20.14-11.678c8.486,1.994,17.097,2.988,25.672,2.988
				c27.533,0,54.671-10.146,75.907-29.59c3.192-2.923,3.411-7.88,0.487-11.073c-2.924-3.192-7.882-3.412-11.072-0.487
				c-28.969,26.528-70.704,32.948-106.325,16.356c-23.423-10.91-41.191-30.278-50.03-54.535c-0.403-1.108-0.781-2.218-1.14-3.332
				c3.601-4.464,5.812-10.084,5.983-16.21c13.302-2.635,25.923-7.171,37.576-13.31l16.729,45.979
				c2.451,6.711,10.095,10.256,16.804,7.823l48.371-17.612c8.803-3.202,15.832-9.636,19.791-18.116
				c3.962-8.486,4.378-18.006,1.17-26.807c-3.207-8.795-9.648-15.818-18.138-19.775c-4.695-2.187-9.674-3.295-14.802-3.295
				c-2.356,0-4.699,0.238-7.004,0.711c-3.006-5.553-7.445-10.139-12.909-13.373c10.15-14.751,17.525-31.547,21.368-49.635
				c6.091,1.482,12.125,3.567,18.02,6.313c23.422,10.909,41.189,30.278,50.028,54.534c8.838,24.257,7.691,50.499-3.23,73.893
				c-1.596,3.418-3.398,6.763-5.356,9.938c-2.272,3.684-1.126,8.512,2.558,10.783s8.512,1.126,10.783-2.557
				c2.274-3.688,4.366-7.569,6.217-11.534C483.764,282.002,485.101,251.511,474.84,223.325z M151.026,230.001
				c0.004-0.002,0.009-0.004,0.015-0.006c7.809,8.969,16.75,16.929,26.596,23.662c-0.059,0.177-0.11,0.353-0.173,0.529
				l-16.71,45.925l-45.97-16.737c-4.87-1.771-8.758-5.33-10.947-10.018c-2.189-4.687-2.419-9.948-0.649-14.806
				c1.774-4.864,5.338-8.749,10.032-10.937c2.607-1.214,5.359-1.83,8.184-1.83c2.257,0,4.497,0.398,6.654,1.183
				c5.742,2.394,11.074-0.175,12.94-6.03C142.769,236.073,146.333,232.189,151.026,230.001z M149.031,230.931
				C148.933,230.977,148.915,230.985,149.031,230.931L149.031,230.931z M195.59,362.16c-0.687,1.887-2.069,3.393-3.891,4.241
				c-1.009,0.47-2.077,0.709-3.174,0.709c-1.412,0-2.764-0.406-3.927-1.115c1.927-0.773,3.839-1.602,5.737-2.486
				c1.91-0.89,3.785-1.833,5.629-2.818C195.889,361.186,195.766,361.678,195.59,362.16z M233.754,294.742
				C233.759,294.728,233.758,294.729,233.754,294.742L233.754,294.742z M229.932,305.23c0.023-0.063,0.061-0.167,0.111-0.304
				C229.991,305.068,229.954,305.17,229.932,305.23z M230.088,304.803c0.043-0.117,0.092-0.253,0.148-0.405
				C230.178,304.554,230.129,304.689,230.088,304.803z M230.297,304.229c0.101-0.277,0.218-0.598,0.346-0.951
				C230.507,303.654,230.393,303.966,230.297,304.229z M230.715,303.081c0.337-0.925,0.743-2.04,1.148-3.152
				C231.384,301.246,231.005,302.285,230.715,303.081z M232.016,299.511c0.713-1.957,1.391-3.818,1.641-4.503
				C233.017,296.764,232.473,298.258,232.016,299.511z M233.746,294.765c-8.839,24.257-26.606,43.626-50.029,54.535
				c-12.937,6.027-26.673,9.081-40.826,9.08c-37.483,0-71.931-21.915-87.762-55.828c-10.921-23.394-12.068-49.636-3.23-73.893
				c8.839-24.257,26.605-43.625,50.029-54.534c5.852-2.726,11.871-4.828,18.016-6.33c3.841,18.093,11.217,34.895,21.372,49.651
				c-5.463,3.232-9.902,7.818-12.91,13.373c-2.306-0.472-4.648-0.711-7.005-0.711c-5.127,0-10.106,1.109-14.803,3.296
				c-8.488,3.956-14.928,10.979-18.138,19.777c-3.205,8.8-2.789,18.318,1.172,26.804c3.959,8.48,10.988,14.915,19.789,18.116
				l48.381,17.614c6.712,2.435,14.351-1.125,16.8-7.835l16.728-45.973c11.652,6.139,24.272,10.68,37.572,13.314
				c0.171,6.12,2.393,11.73,5.987,16.192C234.53,292.535,234.151,293.652,233.746,294.765z M256.001,285.88
				c-5.274,0-9.713-3.586-11.033-8.439c3.64,0.286,7.32,0.437,11.033,0.437s7.393-0.151,11.033-0.437
				C265.714,282.294,261.274,285.88,256.001,285.88z M321.667,363.508c1.899,0.885,3.813,1.713,5.74,2.484
				c-1.164,0.712-2.517,1.117-3.93,1.117c-1.096,0-2.164-0.239-3.174-0.709c-1.822-0.848-3.204-2.354-3.891-4.241
				c-0.176-0.482-0.299-0.975-0.373-1.47C317.883,361.675,319.757,362.618,321.667,363.508z M301.72,351.6
				c-1.899,5.138-1.932,10.721-0.036,15.925c1.19,3.265,3.074,6.143,5.473,8.518l-43.321,92.804V300.94
				C271.468,321.401,284.587,338.819,301.72,351.6z M371.003,240.929c1.857,5.939,7.253,8.372,12.938,6.036
				c4.867-1.769,10.155-1.538,14.841,0.645c4.696,2.189,8.259,6.074,10.032,10.935c1.771,4.862,1.542,10.121-0.647,14.809
				c-2.189,4.688-6.076,8.247-10.95,10.018L351.25,300.11l-16.711-45.93c-0.063-0.172-0.114-0.347-0.171-0.519
				c9.846-6.733,18.788-14.694,26.598-23.665c0.003,0.002,0.006,0.003,0.009,0.004C365.669,232.189,369.232,236.073,371.003,240.929
				z"/>
			<path d="M471.875,215.186C471.864,215.157,471.864,215.156,471.875,215.186L471.875,215.186z"/>
		</g>
	</g>
</g>
</svg>