<?xml version="1.0" encoding="iso-8859-1"?>
<!-- Uploaded to: SVG Repo, www.svgrepo.com, Generator: SVG Repo Mixer Tools -->
<!DOCTYPE svg PUBLIC "-//W3C//DTD SVG 1.1//EN" "http://www.w3.org/Graphics/SVG/1.1/DTD/svg11.dtd">
<svg fill="#000000" height="800px" width="800px" version="1.1" id="Capa_1" xmlns="http://www.w3.org/2000/svg" xmlns:xlink="http://www.w3.org/1999/xlink" 
	 viewBox="0 0 297 297" xml:space="preserve">
<g>
	<path d="M105.234,161.132c3.581,14.588,10.947,24.953,20.213,28.438c2.57,0.967,5.378,1.456,8.342,1.456
		c20.306,0,44.406-22.207,51.592-41.312c3.955-10.518,3.578-21.946-1.063-32.181c-4.64-10.233-12.988-18.048-23.505-22.004
		c-4.774-1.795-9.754-2.705-14.802-2.705c-17.421,0-33.248,10.96-39.383,27.272C102.349,131.477,101.815,147.2,105.234,161.132z"/>
	<path d="M146.011,78.967c6.72,0,13.34,1.209,19.68,3.593c9.309,3.501,17.327,9.285,23.476,16.769
		c8.834-7.762,16.077-17.535,19.491-26.614c3.956-10.519,3.579-21.947-1.063-32.181c-4.64-10.234-12.987-18.049-23.505-22.004
		c-4.774-1.795-9.753-2.706-14.801-2.706c-17.421,0-33.248,10.961-39.384,27.273c-4.061,10.797-4.741,25.506-1.879,38.886
		C133.731,80.026,139.792,78.967,146.011,78.967z"/>
	<path d="M220.217,34.811c6.168,13.605,6.67,28.798,1.411,42.781c-2.094,5.566-5.27,11.281-9.253,16.77
		c1.462,0.985,2.984,1.79,4.566,2.384c0.026,0.01,0.055,0.016,0.081,0.025c7.749-3.992,16.457-6.214,25.491-6.214
		c1.711,0,3.415,0.081,5.11,0.237c13.066-8.125,24.641-21.646,29.251-33.903c3.956-10.518,3.579-21.947-1.063-32.181
		c-4.64-10.234-12.987-18.049-23.505-22.004C247.533,0.911,242.554,0,237.507,0c-12.598,0-24.355,5.736-32.221,15.079
		C211.604,20.383,216.709,27.074,220.217,34.811z"/>
	<path d="M61.577,101.252c0.985,0.136,1.998,0.204,3.007,0.204c20.863,0,43.447-29.268,46.617-52.338
		c3.155-22.98-12.973-44.246-35.953-47.402c-1.919-0.263-3.865-0.397-5.786-0.397c-20.879,0-38.77,15.628-41.616,36.35
		c-1.654,12.043,1.306,27.495,7.725,40.324C42.291,91.427,51.771,99.904,61.577,101.252z"/>
	<path d="M199.561,150.966c0,7.186,0.443,14.698,2.176,21.757c3.581,14.587,10.947,24.953,20.213,28.438
		c2.57,0.967,5.377,1.457,8.342,1.457c20.306,0,44.406-22.208,51.591-41.313c3.956-10.518,3.579-21.946-1.061-32.181
		c-4.641-10.233-12.988-18.048-23.505-22.003c-4.774-1.796-9.755-2.706-14.802-2.706c-17.421,0-33.246,10.962-39.384,27.272
		C202.694,132.848,199.561,141.75,199.561,150.966z"/>
	<path d="M203.153,204.908c-15.157,12.069-50.649,35.926-99.327,40.793c3.449-2.976,6.72-6.301,9.785-9.982
		c11.273-13.528,16.388-30.427,16.579-30.999c-3.344-0.305-6.568-1.031-9.621-2.18c-2.743-1.032-5.338-2.406-7.783-4.076
		c-0.403,1.183-9.108,23.84-26.583,35.939c5.205-8.942,10.075-19.717,14.584-32.308c1.361-3.802,2.604-7.531,3.735-11.122
		c-5.732-6.74-10.241-16.38-12.894-27.191c-5.371,22.563-15.438,51.9-27.967,69.001c-18.069-36.751,0.138-101.606,5.139-117.732
		c-1.408,0.161-2.813,0.262-4.215,0.262c-1.639,0-3.284-0.111-4.893-0.333c-3.749-0.516-7.294-1.601-10.631-3.153
		c-6.551,21.677-23.831,89.162-2.947,130.928c-8.843,0.44-20.616,4.881-32.038,21.957c-3.041,4.544-1.82,10.69,2.724,13.73
		c1.691,1.131,3.603,1.672,5.494,1.672c3.193,0,6.328-1.543,8.236-4.396c10.252-15.327,20.191-13.42,21.761-12.881
		c0.407,10.673-4.27,16.7-4.565,17.026c-4.068,4.081-4.243,10.512-0.39,14.363c3.854,3.854,10.273,3.668,14.344-0.412
		c0.581-0.581,10.032-10.315,10.427-27.946c44.769,3.18,81.599-9.456,105.698-21.507c21.916-10.958,36.961-23.046,43.623-28.91
		c-1.483-0.352-2.939-0.788-4.355-1.32C211.895,212.184,207.223,209.066,203.153,204.908z"/>
</g>
</svg>