<?xml version="1.0" encoding="iso-8859-1"?>
<!-- Uploaded to: SVG Repo, www.svgrepo.com, Generator: SVG Repo Mixer Tools -->
<svg fill="#000000" height="800px" width="800px" version="1.1" id="Layer_1" xmlns="http://www.w3.org/2000/svg" xmlns:xlink="http://www.w3.org/1999/xlink" 
	 viewBox="0 0 512 512" xml:space="preserve">
<g>
	<g>
		<path d="M495.304,356.168h-22.261V205.907c0-27.618-22.469-50.087-50.087-50.087H272.696v-25.133
			c29.497-10.461,42.313-45.135,26.713-72.192c-0.001-0.002-0.002-0.004-0.003-0.007L270.46,8.343
			C264.037-2.783,247.95-2.765,241.54,8.344l-28.944,50.147c-15.637,27.098-2.736,61.754,26.708,72.196v25.133H89.044
			c-27.618,0-50.087,22.469-50.087,50.087v28.33c0,0.008,0,0.014,0,0.022v121.908H16.696C7.475,356.168,0,363.643,0,372.864
			c0,9.22,7.475,16.696,16.696,16.696c12.058,0,214.667,0,222.609,0v89.043h-116.87c-9.22,0-16.696,7.475-16.696,16.696
			s7.475,16.696,16.696,16.696h267.13c9.22,0,16.696-7.475,16.696-16.696s-7.475-16.696-16.696-16.696h-116.87V389.56
			c8.518,0,211.982,0,222.609,0c9.22,0,16.696-7.475,16.696-16.696C512,363.643,504.525,356.168,495.304,356.168z M241.517,75.182
			L256,50.088l14.481,25.088c6.37,11.042-1.65,24.992-14.481,24.992C243.135,100.168,235.171,86.182,241.517,75.182z
			 M72.348,356.168v-88.653c0.009,0.01,0.019,0.021,0.028,0.031c11.611,12.74,26.062,28.596,49.323,28.596
			c38.308,0,47.599-39.119,66.783-39.119c18.934,0,28.853,39.119,66.783,39.119c38.308,0,47.599-39.119,66.783-39.119
			c19.179,0,28.492,39.119,66.783,39.119c26.455,0,39.904-19.352,50.822-30.383v90.408H72.348z M439.652,226.258
			c-26.189,9.039-34.365,36.493-50.822,36.493c-19.158,0-28.482-39.119-66.783-39.119c-38.28,0-47.589,39.119-66.783,39.119
			c-18.94,0-28.845-39.119-66.783-39.119c-38.28,0-47.589,39.119-66.783,39.119c-15.518,0-27.365-27.124-49.352-39.428v-17.416
			c0-9.206,7.49-16.696,16.696-16.696h333.913c9.206,0,16.696,7.49,16.696,16.696V226.258z"/>
	</g>
</g>
</svg>